<svg width="20" height="20" viewBox="0 0 20 20" fill="none" xmlns="http://www.w3.org/2000/svg">
<g clip-path="url(#clip0_125_11023)">
<path d="M0 5.03587C0.227666 4.47851 0.545554 4.43045 1.24373 4.50465V4.75002C1.24373 7.61355 1.24373 10.4776 1.24373 13.3423C1.24373 14.1298 1.56246 14.7311 2.27497 15.0785C2.51468 15.1926 2.77527 15.2563 3.0406 15.2656C3.88802 15.296 4.72701 15.3727 5.54829 15.5869C6.61242 15.8635 7.58548 16.3154 8.44386 17.1165C8.15464 17.06 7.92023 17.0102 7.68498 16.9698C6.44125 16.7522 5.19078 16.732 3.93356 16.818C2.91068 16.9006 1.8942 17.049 0.890425 17.2624C0.468822 17.3467 0.209115 17.1865 0.0362579 16.7969C0.0264392 16.7815 0.0141944 16.7679 0 16.7564L0 5.03587Z" fill="#666666"/>
<path d="M9.43462 16.5295C9.30393 16.4056 9.19937 16.2993 9.08891 16.2007C7.95817 15.1964 6.62422 14.618 5.14355 14.3785C4.45296 14.2664 3.74889 14.2343 3.05071 14.177C2.64176 14.1441 2.34326 13.8523 2.34326 13.4417C2.34326 9.87437 2.34326 6.30649 2.34326 2.73804C2.34326 2.31644 2.64091 1.99433 3.0642 2.00108C4.56258 2.02553 6.01542 2.26922 7.33841 3.02389C8.13702 3.46911 8.81178 4.10676 9.3014 4.87894C9.38934 5.01684 9.43856 5.17586 9.4439 5.33933C9.45121 9.03763 9.45289 12.7357 9.44896 16.4334C9.4498 16.4519 9.4439 16.4705 9.43462 16.5295Z" fill="#666666"/>
<path d="M10.5493 16.4964V16.2679C10.5493 12.745 10.5585 9.22293 10.5392 5.70086C10.5346 5.24024 10.6983 4.79381 10.9995 4.44532C11.9819 3.2193 13.288 2.54136 14.794 2.2395C15.4601 2.10627 16.1431 2.06411 16.8244 2.00761C17.3413 1.96545 17.6533 2.28587 17.6533 2.81035C17.6533 6.33214 17.6533 9.85449 17.6533 13.3774C17.6533 13.8833 17.3657 14.1725 16.8573 14.181C15.4146 14.2063 14.0132 14.4339 12.691 15.0419C11.9844 15.361 11.3367 15.7972 10.7753 16.332C10.719 16.3882 10.6628 16.4413 10.6066 16.4914C10.5982 16.4939 10.5822 16.4914 10.5493 16.4964Z" fill="#666666"/>
<path d="M11.5664 17.1102C12.0728 16.6301 12.6622 16.2461 13.3059 15.9769C14.446 15.4895 15.645 15.2965 16.8769 15.2762C17.336 15.2839 17.7818 15.122 18.1291 14.8217C18.3121 14.6646 18.4614 14.4721 18.5681 14.2557C18.6748 14.0394 18.7365 13.8037 18.7497 13.5628C18.7564 13.4591 18.7547 13.3545 18.7547 13.25C18.7547 10.4118 18.7547 7.57297 18.7547 4.73361V4.50173C19.0077 4.50173 19.2438 4.47137 19.4689 4.50932C19.7877 4.56328 19.9968 4.86768 19.9976 5.2134C19.9976 6.60075 19.9976 7.98754 19.9976 9.37377V16.4441C19.9976 17.0824 19.6199 17.3901 18.9984 17.2493C17.9787 17.0156 16.9414 16.8661 15.8971 16.8024C14.4839 16.7181 13.0757 16.7645 11.6904 17.0984C11.6493 17.1044 11.6079 17.1083 11.5664 17.1102Z" fill="#666666"/>
</g>
<defs>
<clipPath id="clip0_125_11023">
<rect width="20" height="15.2856" fill="white" transform="translate(0 2)"/>
</clipPath>
</defs>
</svg>
