<svg width="20" height="20" viewBox="0 0 20 20" fill="none" xmlns="http://www.w3.org/2000/svg">
<g clip-path="url(#clip0_105_3471)">
<path d="M9.9994 2.83692C10.2815 2.32168 10.5361 1.8464 10.8021 1.37529C10.8693 1.2449 10.9769 1.13966 11.1087 1.07521C11.2405 1.01075 11.3896 0.990513 11.5338 1.01749C11.823 1.05685 12.0186 1.23098 12.111 1.50947C12.1832 1.72832 12.1373 1.93167 12.0281 2.12966C11.656 2.80352 11.2923 3.48514 10.913 4.16079C10.8767 4.21493 10.8573 4.27866 10.8573 4.34386C10.8573 4.40907 10.8767 4.4728 10.913 4.52694C13.1039 8.53553 15.2905 12.5463 17.4727 16.5593C17.496 16.616 17.5373 16.6635 17.5902 16.6945C17.643 16.7255 17.7046 16.7383 17.7655 16.731C18.2635 16.7221 18.762 16.7262 19.2605 16.731C19.678 16.731 19.9916 17.0339 19.9952 17.4335C19.9988 17.8509 19.6911 18.1574 19.2599 18.1574C13.0843 18.1574 6.90878 18.1574 0.733496 18.1574C0.305325 18.1533 0 17.8491 0 17.4323C0 17.0274 0.308903 16.7292 0.730515 16.7268C1.23621 16.7268 1.74429 16.7233 2.2482 16.7268C2.30174 16.7339 2.35613 16.7234 2.40314 16.6968C2.45016 16.6702 2.48724 16.6291 2.5088 16.5795C4.70332 12.5495 6.89844 8.51943 9.09416 4.48937C9.11508 4.44245 9.12589 4.39166 9.12589 4.34029C9.12589 4.28892 9.11508 4.23812 9.09416 4.1912C8.71966 3.48156 8.32846 2.78146 7.94919 2.0748C7.87022 1.93841 7.83907 1.77955 7.86067 1.62344C7.88228 1.46732 7.95541 1.3229 8.06846 1.21309C8.17483 1.10185 8.31578 1.02997 8.46828 1.00917C8.62078 0.988375 8.77583 1.0199 8.9081 1.09859C9.04317 1.18817 9.15548 1.30803 9.23609 1.44864C9.49252 1.88933 9.72986 2.34315 9.9994 2.83692ZM12.1432 16.7173C12.1432 16.1281 12.1486 15.5634 12.1432 14.998C12.1373 14.5007 12.1552 13.9986 12.0961 13.5072C11.9637 12.4093 10.8259 11.5769 9.74357 11.7498C8.59324 11.9329 7.86272 12.7856 7.85795 13.9562C7.85497 14.812 7.85795 15.6671 7.85795 16.5205C7.85795 16.5849 7.8663 16.6487 7.87047 16.7167L12.1432 16.7173Z" fill="#666666"/>
</g>
<defs>
<clipPath id="clip0_105_3471">
<rect width="20" height="17.1543" fill="white" transform="translate(0 1)"/>
</clipPath>
</defs>
</svg>
