<svg width="20" height="20" viewBox="0 0 20 20" fill="none" xmlns="http://www.w3.org/2000/svg">
<path d="M15.968 19H14.5832C14.5354 18.9783 14.488 18.9555 14.4396 18.9361C14.0651 18.7832 13.8464 18.5169 13.8187 18.1233C13.8037 17.9009 13.8107 17.6785 13.8089 17.4562C13.8089 17.3422 13.8089 17.2282 13.8089 17.1159H5.9365C5.9365 17.4589 5.94631 17.7914 5.9365 18.1233C5.92323 18.4663 5.73744 18.7165 5.43164 18.8844C5.34913 18.93 5.25854 18.9616 5.17257 19H3.7878C3.18254 18.8093 2.9604 18.3885 2.98636 17.7997C3.00598 17.3672 2.99502 16.933 2.98636 16.5C2.9832 16.4158 2.94927 16.3355 2.89058 16.2731C2.60623 16.0068 2.381 15.6876 2.22856 15.3349C2.07611 14.9821 1.99963 14.6033 2.00375 14.2212C1.99875 11.0824 1.99875 7.94357 2.00375 4.80476C2.00433 4.22437 2.10703 3.66398 2.39841 3.14696C2.84846 2.34753 3.59451 1.90778 4.44787 1.61147C5.56088 1.22232 6.7264 1.10057 7.89769 1.04942C9.49537 0.979374 11.093 0.970479 12.689 1.11113C13.6035 1.19118 14.5065 1.32517 15.3714 1.63649C15.9986 1.8622 16.5721 2.17241 17.0141 2.67164C17.5536 3.28317 17.7451 4.00922 17.7463 4.78864C17.7517 7.93338 17.7517 11.0781 17.7463 14.2229C17.7514 14.6045 17.6761 14.9832 17.5247 15.3359C17.3733 15.6887 17.1492 16.0081 16.8658 16.2748C16.8071 16.3372 16.7732 16.4175 16.77 16.5016C16.7614 16.9936 16.7654 17.4856 16.7654 17.9771C16.7654 18.3257 16.6431 18.622 16.3396 18.8249C16.2205 18.8922 16.0963 18.9507 15.968 19V19ZM15.7563 9.51242V4.80587H3.99494V9.51242H15.7563ZM3.98571 13.7664C3.95916 14.5275 4.60828 15.1824 5.41144 15.2052C5.80107 15.2131 6.17816 15.0724 6.46056 14.8136C6.74296 14.5548 6.90778 14.199 6.91911 13.8237C6.94796 13.0532 6.30116 12.4055 5.47664 12.3822C4.67117 12.3594 4.01513 12.967 3.98744 13.7664H3.98571ZM15.7638 13.7842C15.7608 13.4091 15.6033 13.0505 15.3259 12.7873C15.0485 12.5241 14.674 12.3779 14.2847 12.3808C13.8954 12.3836 13.5232 12.5354 13.25 12.8027C12.9769 13.0699 12.8251 13.4308 12.8281 13.8059C12.831 14.181 12.9885 14.5396 13.2659 14.8028C13.5433 15.066 13.9179 15.2122 14.3072 15.2094C14.6965 15.2065 15.0686 15.0547 15.3418 14.7875C15.615 14.5202 15.7668 14.1593 15.7638 13.7842Z" fill="#666666"/>
</svg>
