<svg id="圖層_1" data-name="圖層 1" xmlns="http://www.w3.org/2000/svg" viewBox="0 0 307.93 54.47"><defs><style>.cls-1{fill:none;}.cls-2{fill:#f7d17d;}.cls-3{fill:#ffd77c;}.cls-4,.cls-5{fill:#979797;}.cls-4{stroke:#979797;stroke-width:0.3px;}</style></defs><rect class="cls-1" width="307.93" height="54.47"/><path class="cls-2" d="M33.8,28.12a3.24,3.24,0,0,0-1.55-1.35,2.69,2.69,0,0,0-1.16-.17,3,3,0,0,0-1.14.29,5,5,0,0,0-2.26,1.84,10.6,10.6,0,0,0-1.31,2.63,12.72,12.72,0,0,0-.19,1.38,5.8,5.8,0,0,0,.06,1.44,3.85,3.85,0,0,0,.6,1.74,3.29,3.29,0,0,0,1.2,1.2,3,3,0,0,0,1.6.4,3.63,3.63,0,0,0,1.8-.56,5.43,5.43,0,0,0,1.88-1.87,9.74,9.74,0,0,0,1.07-2.48,6,6,0,0,0,.12-2.3A5.3,5.3,0,0,0,33.8,28.12Z"/><path class="cls-3" d="M61.68,33a33.91,33.91,0,0,1-6.81-4.28,1.81,1.81,0,0,0-.52-.3c-.44-7.37-4.06-17.71-8.3-21.66C40.22,1.39,24.62-3,14.52,2.67a28.79,28.79,0,0,0-14.07,30,26.34,26.34,0,0,0,8.2,14.65c4.62,4.2,10.35,6.17,16.48,6.8s13.34.78,18.88-2.49a20.9,20.9,0,0,0,8.7-11.22A31.21,31.21,0,0,0,62,35.28a1.41,1.41,0,0,0,.34-.56,1.44,1.44,0,0,0,.07-.65,1.57,1.57,0,0,0-.23-.61A1.41,1.41,0,0,0,61.68,33ZM16.42,29.27l-.15.14v4.3c0,1.43,0,2.86,0,4.3a1.53,1.53,0,0,1-.12.67,1.69,1.69,0,0,1-.37.58,1.39,1.39,0,0,1-1,.41,1.37,1.37,0,0,1-.94-.38,1.74,1.74,0,0,1-.54-1.19V29.32a39,39,0,0,1-4.08-4.63,17.75,17.75,0,0,1-2.79-5.48V19a.43.43,0,0,1,0-.16,1.57,1.57,0,0,1,.08-.64,1.51,1.51,0,0,1,.33-.56,1.23,1.23,0,0,1,.44-.3,1.32,1.32,0,0,1,.52-.12,1.62,1.62,0,0,1,.8.24,1.64,1.64,0,0,1,.6.6,16.07,16.07,0,0,0,2.19,4.69,31.59,31.59,0,0,0,3.31,3.9l3.48-4.12a25.58,25.58,0,0,0,3-4.44,1.87,1.87,0,0,1,.68-.74,1.39,1.39,0,0,1,1.71.17A1.42,1.42,0,0,1,24,18a1.4,1.4,0,0,1,.1.57,2.12,2.12,0,0,1-.18.79,30.61,30.61,0,0,1-3.48,5.1Q18.35,26.9,16.42,29.27Zm20.84,4.1a11.29,11.29,0,0,1-1.88,4A7.86,7.86,0,0,1,31.92,40a6.23,6.23,0,0,1-3,.45,5.81,5.81,0,0,1-2.58-.92,6.75,6.75,0,0,1-1.92-2,7.46,7.46,0,0,1-1.07-2.76,7.65,7.65,0,0,1-.13-1.91A14.69,14.69,0,0,1,23.49,31l.11-.47a15.52,15.52,0,0,1,1-2.25,10.08,10.08,0,0,1,1.36-2,8.25,8.25,0,0,1,1.8-1.54A7.29,7.29,0,0,1,30,23.8a5.35,5.35,0,0,1,3.65.32,6.38,6.38,0,0,1,2.49,2.26,8.86,8.86,0,0,1,1.24,3.37A8.67,8.67,0,0,1,37.26,33.37ZM43.93,38a1.78,1.78,0,0,1-.32.57,1.81,1.81,0,0,1-.51.4,1.87,1.87,0,0,1-.65.19,1.68,1.68,0,0,1-.67-.09,1.57,1.57,0,0,1-.59-.3,1.6,1.6,0,0,1-.41-.52,1.55,1.55,0,0,1-.2-.63,1.6,1.6,0,0,1,.08-.65,1.63,1.63,0,0,1,.33-.59,1.8,1.8,0,0,1,.54-.41,1.59,1.59,0,0,1,.63-.19,1.78,1.78,0,0,1,.65.07,1.93,1.93,0,0,1,.6.32,1.76,1.76,0,0,1,.41.53,1.64,1.64,0,0,1,.11,1.3Zm1.34-5.4a1.56,1.56,0,0,1-.27.51,1.51,1.51,0,0,1-.43.37,1.26,1.26,0,0,1-.91.11A1.24,1.24,0,0,1,43,33a1.51,1.51,0,0,1-.15-1.12L45,25.33a1.57,1.57,0,0,1,.74-.72,1.21,1.21,0,0,1,.82-.08,1.14,1.14,0,0,1,.64.48,1.64,1.64,0,0,1,.27,1Z"/><path class="cls-3" d="M75.22,48a2.9,2.9,0,0,1-2.06-.92,2.59,2.59,0,0,1-.67-1.69,3.11,3.11,0,0,1,.26-1.08V16.88a3.73,3.73,0,0,1-1.14.19,2.38,2.38,0,0,1-.92-.16,2.24,2.24,0,0,1-.78-.51,2.34,2.34,0,0,1-.7-1.68,3.39,3.39,0,0,1,1.52-2.6A16,16,0,0,1,74.42,10a24.24,24.24,0,0,1,4.47-1.43,18.38,18.38,0,0,1,3.91-.51A13.76,13.76,0,0,1,88,9a12.9,12.9,0,0,1,3.94,2.45,10.84,10.84,0,0,1,2.46,3.31,8.3,8.3,0,0,1,.85,3.53A9.42,9.42,0,0,1,94,22.94a12,12,0,0,1-3.46,3.91,11.34,11.34,0,0,1,4.7,4A9.53,9.53,0,0,1,96.75,36a9.76,9.76,0,0,1-.63,3.46,12.56,12.56,0,0,1-4.38,5.71,11.46,11.46,0,0,1-3.38,1.71,22.48,22.48,0,0,1-4.8,1c-1.63.15-3.25.23-4.85.22H77C76.4,48.06,75.82,48,75.22,48ZM80,24.59c.66,0,1.33.05,2,.09a11.15,11.15,0,0,0,2.28-.48,11.87,11.87,0,0,0,2.67-1.14,8.47,8.47,0,0,0,2.2-1.8A3.79,3.79,0,0,0,90,18.72a4.17,4.17,0,0,0-.69-2.4,6,6,0,0,0-1.8-1.68,8.3,8.3,0,0,0-2.45-1,11.6,11.6,0,0,0-2.63-.31,12,12,0,0,0-4.51.82V24.59ZM89.15,32a10.76,10.76,0,0,0-3.22-1.46,22.13,22.13,0,0,0-3.6-.66c-.73.08-1.45.16-2.2.22s-1.47.09-2.19.09V42.92c.89,0,2.09-.05,3.6-.13A21.37,21.37,0,0,0,86,42.06a10.21,10.21,0,0,0,3.81-1.94,4.52,4.52,0,0,0,1.25-1.68,4.59,4.59,0,0,0,.37-2.07,5.39,5.39,0,0,0-.6-2.39,4.76,4.76,0,0,0-1.72-1.92Z"/><path class="cls-3" d="M102.27,11.1a3.49,3.49,0,0,1,.89-2.4,2.89,2.89,0,0,1,1-.73,2.74,2.74,0,0,1,1.19-.25,2.88,2.88,0,0,1,2.19,1,3.4,3.4,0,0,1,.93,2.4,3.34,3.34,0,0,1-.93,2.32,2.91,2.91,0,0,1-2.19,1,2.74,2.74,0,0,1-1.19-.25,2.89,2.89,0,0,1-1-.73A3.41,3.41,0,0,1,102.27,11.1Zm5.88,34.55a3,3,0,0,1-.21,1.18,2.92,2.92,0,0,1-.65,1,2.46,2.46,0,0,1-3.43.07,3.2,3.2,0,0,1-1-2.07q-.06-6-.1-12.19t-.09-12.19a3.67,3.67,0,0,1,1-1.91,2.31,2.31,0,0,1,1.59-.64,2.56,2.56,0,0,1,1.56.6,3.34,3.34,0,0,1,1.05,1.8q.06,6,.09,12.19T108.15,45.65Z"/><path class="cls-3" d="M120.36,47.52a2.48,2.48,0,0,1-1.68.76,2.45,2.45,0,0,1-1.71-.63,3.12,3.12,0,0,1-1-2.08V9.38a3.23,3.23,0,0,1,1-1.84,2.28,2.28,0,0,1,3.08-.12,3.41,3.41,0,0,1,1.14,1.8V27.81a25.43,25.43,0,0,0,3-2c.86-.67,1.72-1.41,2.57-2.22s1.71-1.68,2.57-2.63,1.81-2,2.83-3.15a3,3,0,0,1,2.12-.82,2.39,2.39,0,0,1,2.4,2.39,3,3,0,0,1-.82,2.13c-1.6,1.87-3.08,3.48-4.45,4.86a33.35,33.35,0,0,1-4.32,3.72q3.24,3.6,6.13,6.83l6.11,6.83A3,3,0,0,1,140,46a2.73,2.73,0,0,1-.83,1.66,2.23,2.23,0,0,1-.8.47,2.34,2.34,0,0,1-.91.13,3.13,3.13,0,0,1-2.07-1Q132,43.42,129,40.06T122.65,33l-.73.38-.73.38V45.39A3,3,0,0,1,120.36,47.52Z"/><path class="cls-3" d="M163.8,40.25a3.13,3.13,0,0,1,2.29-.13,2.54,2.54,0,0,1,1.36,1.2,2.45,2.45,0,0,1,.13,1.84,3,3,0,0,1-1.49,1.72,42.83,42.83,0,0,1-4.51,2.22,20.63,20.63,0,0,1-4.86,1.4,14.86,14.86,0,0,1-4.89,0,11.79,11.79,0,0,1-8.74-7A16.74,16.74,0,0,1,141.64,35a16.12,16.12,0,0,1,1.23-6.54,11.2,11.2,0,0,1,4.1-5,22.27,22.27,0,0,1,6.35-3,14,14,0,0,1,6.92-.23,7.14,7.14,0,0,1,3.12,1.62,10.25,10.25,0,0,1,2.25,2.86,7.9,7.9,0,0,1,.92,3.46,6,6,0,0,1-.89,3.4,9.2,9.2,0,0,1-3.11,3,25,25,0,0,1-4.41,2.09,45.94,45.94,0,0,1-4.77,1.43c-1.59.39-3,.75-4.16,1.07a3.23,3.23,0,0,1-1.45.07,8.07,8.07,0,0,0,2.82,3.33,7,7,0,0,0,4.67,1.11,11.42,11.42,0,0,0,4.49-1.24Q162,41.33,163.8,40.25ZM151.42,26.72a7.93,7.93,0,0,0-3.5,3.4,9.86,9.86,0,0,0-1.14,4.61,3.7,3.7,0,0,1,1-.51c.76-.21,1.53-.44,2.31-.67s1.58-.46,2.4-.67c.51-.12,1.2-.31,2.06-.6s1.8-.55,2.71-.89a14.65,14.65,0,0,0,2.53-1.2,3.54,3.54,0,0,0,1.51-1.41c.08-1.39-.25-2.34-1-2.85a4.77,4.77,0,0,0-2.72-.76,10.92,10.92,0,0,0-3.31.54A21.63,21.63,0,0,0,151.42,26.72Z"/><path class="cls-4" d="M288.07,47.35h0a2,2,0,0,0,.55-1.53V35.68h11.45a4.74,4.74,0,0,0,3.55-.84,4.15,4.15,0,0,0,1.15-3.27V22.38a3.84,3.84,0,0,0-1.11-3.22,5.52,5.52,0,0,0-3.61-1H288.64V10.23a1.85,1.85,0,0,0-.56-1.45l0,0h0a2.84,2.84,0,0,0-1.62-.49,2.89,2.89,0,0,0-1.62.49h0v0a1.76,1.76,0,0,0-.45.67,1.89,1.89,0,0,0-.13.78v8H273.57a4.78,4.78,0,0,0-3.55.9,4.26,4.26,0,0,0-1.14,3.29v9.18a3.54,3.54,0,0,0,1,3.16h0a5.68,5.68,0,0,0,3.66,1h10.63V45.81a2.07,2.07,0,0,0,.59,1.53h0l0,0a2.23,2.23,0,0,0,.75.43,2.32,2.32,0,0,0,.87.12,2.37,2.37,0,0,0,.88-.11A2.2,2.2,0,0,0,288.07,47.35ZM275.46,21.77h8.71V25H273.33V23.57h0a1.91,1.91,0,0,1,.41-1.42A2.82,2.82,0,0,1,275.46,21.77Zm-2.13,8.6V28.58h10.84V32.1l-8.68,0h0a3,3,0,0,1-1.73-.35A1.76,1.76,0,0,1,273.33,30.37Zm26.95-6.81v0h0V25H288.62l0-3.2h9.5a2.84,2.84,0,0,1,1.73.37A1.9,1.9,0,0,1,300.28,23.56Zm-2.14,8.54h-9.52l0-3.52h11.64v1.77h0v0a1.75,1.75,0,0,1-.4,1.37A3,3,0,0,1,298.14,32.1Z"/><path class="cls-4" d="M269.77,43.86l0,0,.06.07h0l0-.06-.05-.07v0Zm0,0h0v0Zm34.46-4.49-.13-.22a7.81,7.81,0,0,1-1.13.54,16.16,16.16,0,0,1-1.81.5h0a27.83,27.83,0,0,1-3.86.56h0a56.09,56.09,0,0,1-8.5,0h0c-1-.09-1.52-.16-2.32-.28l-.4,0c-1.07-.16-2.19-.3-3.29-.41a56.49,56.49,0,0,0-7.8-.34h0a23.33,23.33,0,0,0-3.91.39,7.35,7.35,0,0,0-3.54,1.66A1.48,1.48,0,0,0,267,42.9a1.69,1.69,0,0,0,.53,1.09,1.73,1.73,0,0,0,2.32.14h0l.09-.09,0,0,0,0,0,0,.06,0v0l.08,0a2.21,2.21,0,0,1,.34-.18l.07,0h0l.08,0,.19-.07.08,0h0c.25-.08.51-.15.77-.21A17.67,17.67,0,0,1,275,43h0a55.63,55.63,0,0,1,7.74.34h0l1.49.17h.17l.36.05h0l.69.09h0c1.1.17,2.19.31,3.31.4a53.29,53.29,0,0,0,8.38.05h0c2.85-.2,6.11-.56,8.67-2h0a1.55,1.55,0,0,0,.79-1.08,1.7,1.7,0,0,0-.24-1.19,1.75,1.75,0,0,0-.94-.77,1.61,1.61,0,0,0-1.35.18Zm-33.65,4.05.13-.05h0l0,.06a.4.4,0,0,1,0,.16l0,0Z"/><path class="cls-4" d="M269.77,14.92l0,0,.06.07h0l0,0-.05-.07h-.05Zm0,0,0,0h0Zm34.46-4.49-.13-.22a7.81,7.81,0,0,1-1.13.54,14.27,14.27,0,0,1-1.81.5h0a27.83,27.83,0,0,1-3.86.56h0a54.82,54.82,0,0,1-8.5,0h0c-1-.08-1.52-.16-2.32-.27l-.4-.06c-1.07-.15-2.19-.3-3.29-.41a56.49,56.49,0,0,0-7.8-.34h0a24.43,24.43,0,0,0-3.91.39,7.44,7.44,0,0,0-3.54,1.66A1.48,1.48,0,0,0,267,14a1.67,1.67,0,0,0,.53,1.09,1.72,1.72,0,0,0,2.32.14h0l.09-.09,0,0,0,0h0l.06-.05h0l.08-.05a2.21,2.21,0,0,1,.34-.18l.07,0h0l.08,0,.19-.08.08,0,0,0h0c.25-.08.51-.15.77-.21A17.67,17.67,0,0,1,275,14h0a57.21,57.21,0,0,1,7.74.34h0l1.49.17h.17l.36.05h0l.69.09h0c1.1.17,2.19.32,3.31.41a55.82,55.82,0,0,0,8.38.05h0c2.85-.21,6.11-.57,8.67-2.05h0a1.57,1.57,0,0,0,.79-1.09,1.71,1.71,0,0,0-.24-1.19,1.75,1.75,0,0,0-.94-.77,1.65,1.65,0,0,0-1.35.18Zm-33.65,4.05.13-.05h0s0,0,0,.06a.35.35,0,0,1,0,.16l0,0Z"/><path class="cls-5" d="M214.45,44.23a2.07,2.07,0,0,0-1.56-.58h0v.51h0v-.51l-16.26.18a41,41,0,0,1-7.58-.58,8.86,8.86,0,0,1-4.1-1.63l-1.14-1.13-.36.36h0l-.36.36.13.12-1.08,2.3h0l-.15.26-.13.14,0,0h0a11.58,11.58,0,0,0,5.2,3.11h0c2.11.62,5.66.92,10.59.92h0l14.35,0v-.51h0v.51h0a3.45,3.45,0,0,0,2.1-.56,2.14,2.14,0,0,0,.8-1.79A2.23,2.23,0,0,0,214.45,44.23ZM184.61,42Zm-2.39,1.68Zm5.06,3Zm10.45.9Z"/><path class="cls-4" d="M192,40.27h0a2,2,0,0,0,.6,1.53,2.43,2.43,0,0,0,1.68.52c2.2,0,3.81-.62,4.76-1.9a4.15,4.15,0,0,0,.59-1.42,17.86,17.86,0,0,0,.42-2.35q.33-2.83.58-8.26h0l.12-2.88h0a2.65,2.65,0,0,0-.78-2.06,3.38,3.38,0,0,0-2.28-.68h-3.39l.12-3.37h0v0l0-.92h4.59a2,2,0,0,0,1.43-.45c-.38.73-.78,1.45-1.19,2.16a2.47,2.47,0,0,0-.42,1.11v0h0a1.92,1.92,0,0,0,.43,1.35,1.61,1.61,0,0,0,1.27.48,1.48,1.48,0,0,0,.94-.42,5,5,0,0,0,.76-.85v0a1.59,1.59,0,0,0,.07.65,1.5,1.5,0,0,0,.92,1,1.31,1.31,0,0,0,.65.07h6.86l-2,1.45a3.7,3.7,0,0,0-1.31,1.41,3.94,3.94,0,0,0-.46,1.91v1.42h-3.93a2,2,0,0,0-1.4.45,1.79,1.79,0,0,0-.48,1.34,1.75,1.75,0,0,0,.49,1.33,2,2,0,0,0,1.39.45h3.93v4.51h0v0a1.1,1.1,0,0,1,0,.47,1,1,0,0,1-.24.39.91.91,0,0,1-.37.24.88.88,0,0,1-.43,0h-1.44a1.9,1.9,0,0,0-1.42.5,2,2,0,0,0-.49,1.43,1.78,1.78,0,0,0,.51,1.38,2,2,0,0,0,1.45.43h1.85a3.58,3.58,0,0,0,3.14-.91,4.9,4.9,0,0,0,1-3.36V33.35h4.18a2,2,0,0,0,1.41-.44,1.69,1.69,0,0,0,.5-1.33,1.78,1.78,0,0,0-.5-1.34,2.05,2.05,0,0,0-1.42-.45h-4.18V28.44a2,2,0,0,1,.27-.9,2,2,0,0,1,.62-.69h0l0,0,3.28-2.73h0a5.34,5.34,0,0,0,1-1,1.67,1.67,0,0,0-.44-2.45,4.09,4.09,0,0,0-2.15-.46H203.8a1.31,1.31,0,0,0-.65.07h0c.45-.81.92-1.8,1.42-3h9.92a2,2,0,0,0,1.45-.44,1.81,1.81,0,0,0,.51-1.39,1.87,1.87,0,0,0-.51-1.4,2,2,0,0,0-1.45-.47h-8.32c.33-.83.58-1.53.76-2.09a5.51,5.51,0,0,0,.31-1.46,1.83,1.83,0,0,0-.46-1.33,1.81,1.81,0,0,0-1.33-.46,1.69,1.69,0,0,0-1.17.46,2.92,2.92,0,0,0-.73,1.25h0a42.72,42.72,0,0,1-2.68,7,2.38,2.38,0,0,0,0-.39h0a1.86,1.86,0,0,0-.51-1.4,2,2,0,0,0-1.44-.47h-2.45V10.35a2.27,2.27,0,0,0-.44-1.55,1.75,1.75,0,0,0-1.4-.54,1.79,1.79,0,0,0-1.41.54,2.26,2.26,0,0,0-.47,1.55v4.42h-3.58a2,2,0,0,0-1.44.49,1.85,1.85,0,0,0-.48,1.38,1.77,1.77,0,0,0,.5,1.36,2,2,0,0,0,1.42.46H191v2.28c-.08,7.82-1.24,13.33-3.43,16.59a2.92,2.92,0,0,0-.58,1.38v0a2,2,0,0,0,.43,1.37,1.62,1.62,0,0,0,1.27.5,2,2,0,0,0,1.41-.73,8.15,8.15,0,0,0,1.29-2,19.63,19.63,0,0,0,1.89-5.32h0a45.93,45.93,0,0,0,.77-6.3h2.36a.58.58,0,0,1,.32,0,.67.67,0,0,1,.28.19.79.79,0,0,1,.16.3.88.88,0,0,1,0,.36v0h0l-.2,5.29c-.09,1.5-.19,2.72-.31,3.65a8.23,8.23,0,0,1-.41,1.89,1.06,1.06,0,0,1-.41.43.94.94,0,0,1-.57.09h0l-1.24,0h0a2.26,2.26,0,0,0-1.5.45A1.65,1.65,0,0,0,192,40.27Z"/><path class="cls-4" d="M176,18.32l.06,0,.13-.15a5.64,5.64,0,0,1,.81-.74c.16-.11.33-.21.49-.3l0,0h0l.11,0,.14,0,.13,0h0l.09,0h.26l.2.07h.06a1.16,1.16,0,0,1,.25.2,4.79,4.79,0,0,0,2.74,1.7h0a6.26,6.26,0,0,0,3.07-.49,1.72,1.72,0,0,0,1-.85,2,2,0,0,0,.16-1.32h0a1.76,1.76,0,0,0-.76-1.06,1.47,1.47,0,0,0-1.24-.18h0a8.37,8.37,0,0,1-1.29.4h-.51l-.06,0h0a3.62,3.62,0,0,1-.82-.75h0a4.65,4.65,0,0,0-1.52-1h0a3.92,3.92,0,0,0-3.1.17,8.54,8.54,0,0,0-2.54,1.9h0a1.84,1.84,0,0,0-.45,1.24,1.88,1.88,0,0,0,.47,1.23,1.52,1.52,0,0,0,2.15.16Zm2.08-1.4h0l-.06-.22h0s0,.05,0,.07a.15.15,0,0,0,0,.06l0,0h0Zm.08-.16a.11.11,0,0,1,0-.05h0a.19.19,0,0,1,0,.08Zm3.63-1.1h0l.08-.15.05,0h0a.16.16,0,0,1,0,.06.19.19,0,0,1,0,.08.17.17,0,0,1,0,.07h0Zm.46,0h0Z"/><path class="cls-4" d="M176,27.69l.06,0,.15-.17a4.59,4.59,0,0,1,.8-.73,5,5,0,0,1,.49-.31h0l0,0h0l.25-.1.21-.05h.27l.19.05h0l0,0h0a1.16,1.16,0,0,1,.25.2,4.67,4.67,0,0,0,2.73,1.7h0a6.34,6.34,0,0,0,3.07-.5,1.69,1.69,0,0,0,1-.85,2,2,0,0,0,.16-1.32h0a1.76,1.76,0,0,0-.76-1.06,1.51,1.51,0,0,0-1.24-.18h0a7.47,7.47,0,0,1-1.3.39h-.5l-.07,0h0A3.87,3.87,0,0,1,181,24h0a4.63,4.63,0,0,0-1.51-1h0a3.92,3.92,0,0,0-3.1.17A8.82,8.82,0,0,0,173.84,25h0a1.88,1.88,0,0,0,0,2.49,1.5,1.5,0,0,0,2.15.16Zm2.1-1.41h0l0-.17a0,0,0,0,0,0,0s0,0,0,.06l0,0h0Zm.07-.16a.07.07,0,0,1,0-.05h0s0,.06,0,.09Zm3.75-1.29v0a.16.16,0,0,1,0,.06.17.17,0,0,1,0,.07.22.22,0,0,1,0,.08h0l-.14,0h0l.08-.15Zm0,0Z"/><rect class="cls-5" x="176.6" y="43.35" width="0.19" transform="translate(7.28 109.67) rotate(-35.16)"/><path class="cls-5" d="M186,39.14a10.17,10.17,0,0,0-2-5l-.09.07.09-.07h0a5.87,5.87,0,0,0-9.4.2h0v0l0,0h0a2.2,2.2,0,0,0-.44,1.34,2.17,2.17,0,0,0,.47,1.37l.06,0-.06,0v0l.38-.33h0l-.38.33a1.73,1.73,0,0,0,1.29.6,1.62,1.62,0,0,0,.54-.1,5.2,5.2,0,0,0-1,.67h0l.08.1h0l-.08-.1a6,6,0,0,0-2.22,4.87l.51,0h0l-.51,0a5.19,5.19,0,0,0,3,4.41l.05-.09-.05.09h0l.19-.45v0l-.2.47a8.11,8.11,0,0,0,4.48.53h0a5.12,5.12,0,0,0,2.61-1,6.24,6.24,0,0,0,1.87-2.36h0l-.47-.21h0l.47.21A10.83,10.83,0,0,0,186,39.14ZM180.37,36h0l.17-.44h0l-.16.45.16-.45ZM178.26,36a.32.32,0,0,1-.1.09l.1-.09Zm3.08,8.39h0Zm-2.21-.18h-.43l-.15,0h-.09a5.27,5.27,0,0,1-.6-.14l-.28-.1-.14-.07-.06,0h0l-.19-.12,0,0-.1-.09,0,0-.09-.1h0l-.05-.06,0-.06h0l0-.05-.06-.13s0,0,0-.05a.29.29,0,0,0,0-.09.43.43,0,0,1,0-.05v-.25a.17.17,0,0,0,0-.07q0-.09.06-.21h0v0l0,0h0l.14-.28,0,0,.07-.1,0,0,0,0v0a1.92,1.92,0,0,1,.86-.7l.27-.08h.3a2.32,2.32,0,0,1,.58.08A7,7,0,0,1,181.91,43a.36.36,0,0,1,0,.11,1.89,1.89,0,0,1-.76.73,2.89,2.89,0,0,1-1.25.28h-.73Zm-1.65-.31.22.61Zm.08-3.79Zm-1,1.65h0l-.1,0h0Zm0,.08-.08,0h0Zm-.2,1.05-.15.11h0l.15-.11Zm.33.62h0Zm5.79-5.72h0l-.34.11h0Zm-5.95-1.63Zm.3.42.09,0,.07-.12a2.17,2.17,0,0,1,.78-.81h0l.09,0h0l0,0,.15-.06h0l.28-.09h.09l.16,0h.86l.1,0h0a3.2,3.2,0,0,1,.55.18v0h0v0h0l0,0h0l.42.27h0l.25-.36,0,0-.29.41a1.6,1.6,0,0,1,.33.31l.39-.32h0l-.39.32v0l.23.27,0,0,.09.12,0,0a5.51,5.51,0,0,1,.54,1.15,8.65,8.65,0,0,0-1.65-.86,5,5,0,0,0-3.78-.05A2,2,0,0,0,177,37.14Z"/><polygon class="cls-5" points="173.13 43.1 173.13 43.11 173.64 43.07 173.13 43.1"/><line class="cls-4" x1="258.3" y1="18.46" x2="258.3" y2="18.2"/><path class="cls-4" d="M238.87,9.17a4.59,4.59,0,0,0-3.08-.91H225.23a4.68,4.68,0,0,0-3.12.91A3.47,3.47,0,0,0,221,11.93v2.8a3.54,3.54,0,0,0,1.08,2.8,4.63,4.63,0,0,0,3.12.93h10.65a4.34,4.34,0,0,0,3-.93,3.63,3.63,0,0,0,1-2.8v-2.8A3.5,3.5,0,0,0,238.87,9.17Zm-3.44,3.55h0V14a1,1,0,0,1-.31.73,1.16,1.16,0,0,1-.79.23h-7.68a1.49,1.49,0,0,1-.86-.29.81.81,0,0,1-.25-.66V12.74a1.08,1.08,0,0,1,.31-.76,1.11,1.11,0,0,1,.79-.24h7.7a1.17,1.17,0,0,1,.45.06,1.14,1.14,0,0,1,.37.22.77.77,0,0,1,.22.32.65.65,0,0,1,.05.36Z"/><path class="cls-4" d="M261.34,9.17a4.57,4.57,0,0,0-3.08-.91H247.2a4.52,4.52,0,0,0-3,.91,3.53,3.53,0,0,0-1,2.76v2.89a3.46,3.46,0,0,0,1,2.73,4.52,4.52,0,0,0,3,.91h11.1a4.39,4.39,0,0,0,3.05-.93,3.59,3.59,0,0,0,1-2.8v-2.8A3.5,3.5,0,0,0,261.34,9.17ZM258,14a1.11,1.11,0,0,1-.32.69,1,1,0,0,1-.38.21,1.22,1.22,0,0,1-.46.06h-8.15a1.46,1.46,0,0,1-.86-.29.81.81,0,0,1-.26-.66V12.73h0v0a1,1,0,0,1,.27-.7.92.92,0,0,1,.39-.21,1.17,1.17,0,0,1,.46-.06h8.14a1.53,1.53,0,0,1,.9.29.87.87,0,0,1,.27.7Z"/><path class="cls-4" d="M259.65,21.06a5.6,5.6,0,0,0-3.66-1H227.46a4.7,4.7,0,0,0-3.54.86,4.1,4.1,0,0,0-1.11,3.17v7.11a3.41,3.41,0,0,0,1,3.06,5.67,5.67,0,0,0,3.65.94h11.92V45.85A2.22,2.22,0,0,0,240,47.4a2.42,2.42,0,0,0,1.65.52,2.26,2.26,0,0,0,1.63-.53,2,2,0,0,0,.57-1.56V35.23H256a4.94,4.94,0,0,0,3.53-.88h0a4,4,0,0,0,1.12-3.11V24.11A3.46,3.46,0,0,0,259.65,21.06ZM239.42,32H228.53a1.59,1.59,0,0,1-1-.32,1,1,0,0,1-.3-.77V29.09h12.17Zm0-5.92H227.25v-1.7a.81.81,0,0,1,0-.41.84.84,0,0,1,.25-.35,1.1,1.1,0,0,1,.43-.22,1.21,1.21,0,0,1,.5,0h10.95Zm16.72,4.83a1.21,1.21,0,0,1-.35.8,1.29,1.29,0,0,1-.4.22,1.39,1.39,0,0,1-.49.07H243.82V29.09h12.32Zm0-4.83H243.82v-2.7h11.05a1.66,1.66,0,0,1,1,.31.89.89,0,0,1,.29.73Z"/><path class="cls-4" d="M223.92,43.86l0,0h0Zm0,0h0l.09.1h0l0-.06-.05-.06h0ZM221.6,44a1.83,1.83,0,0,0,2.36.17h0l.13-.12h0l0,0,0,0,.06-.05h0l.08,0a2.53,2.53,0,0,1,.37-.18h0l.07,0h0l.09,0,.19-.07.08,0h.05q.39-.12.81-.21a19.21,19.21,0,0,1,3.39-.36h0a60.54,60.54,0,0,1,8.08.34h0l1.57.17h.17l.38.05h0l.71.09h0c1.15.17,2.3.31,3.47.4a58,58,0,0,0,8.74.05h0c3-.2,6.37-.56,9-2h0a1.58,1.58,0,0,0,.83-1.09,1.68,1.68,0,0,0-.25-1.2,1.72,1.72,0,0,0-2.37-.58h0a8.5,8.5,0,0,1-1.19.54,17,17,0,0,1-1.86.5h0a31.77,31.77,0,0,1-4,.56h0a61.07,61.07,0,0,1-8.87,0h0c-1-.09-1.58-.16-2.43-.28l-.41,0c-1.11-.16-2.29-.3-3.43-.41a61.66,61.66,0,0,0-8.15-.34h0a25.53,25.53,0,0,0-4.07.39,7.86,7.86,0,0,0-3.7,1.66A1.46,1.46,0,0,0,221,42.9,1.66,1.66,0,0,0,221.6,44Zm3.14-.57.13-.05h0s0,0,0,.06a.35.35,0,0,1,0,.16l0,0Z"/></svg>