<svg width="14" height="14" viewBox="0 0 14 14" fill="none" xmlns="http://www.w3.org/2000/svg">
<path d="M11.864 14H10.7869C10.7497 13.9831 10.7129 13.9654 10.6752 13.9502C10.3839 13.8313 10.2139 13.6242 10.1923 13.3181C10.1807 13.1451 10.186 12.9722 10.1847 12.7992C10.1847 12.7106 10.1847 12.6219 10.1847 12.5346H4.06171C4.06171 12.8014 4.06934 13.0599 4.06171 13.3181C4.05139 13.5849 3.90689 13.7794 3.66904 13.91C3.60487 13.9455 3.53441 13.9701 3.46755 14H2.39051C1.91975 13.8516 1.74697 13.5243 1.76717 13.0664C1.78243 12.73 1.7739 12.3923 1.76717 12.0555C1.76471 11.9901 1.73832 11.9276 1.69267 11.8791C1.47151 11.6719 1.29633 11.4237 1.17777 11.1493C1.0592 10.875 0.999712 10.5803 1.00292 10.2831C0.999028 7.84182 0.999028 5.40054 1.00292 2.95925C1.00337 2.50783 1.08325 2.07198 1.30987 1.66986C1.65991 1.04807 2.24017 0.706053 2.9039 0.475588C3.76957 0.172913 4.67608 0.078219 5.58707 0.0384389C6.82971 -0.0160425 8.07235 -0.0229608 9.31364 0.0864345C10.0249 0.148699 10.7273 0.252905 11.4 0.495045C11.8878 0.670596 12.3338 0.911871 12.6776 1.30016C13.0972 1.77579 13.2462 2.3405 13.2471 2.94671C13.2513 5.39261 13.2513 7.83851 13.2471 10.2844C13.2511 10.5813 13.1924 10.8758 13.0747 11.1501C12.957 11.4245 12.7827 11.6729 12.5623 11.8804C12.5166 11.9289 12.4902 11.9914 12.4878 12.0568C12.481 12.4395 12.4842 12.8221 12.4842 13.2044C12.4842 13.4755 12.389 13.7059 12.153 13.8638C12.0603 13.9161 11.9637 13.9616 11.864 14V14ZM11.6993 6.62075V2.96011H2.55161V6.62075H11.6993ZM2.54443 9.92941C2.52379 10.5214 3.02865 11.0307 3.65334 11.0484C3.95638 11.0546 4.24967 10.9451 4.46932 10.7439C4.68896 10.5426 4.81715 10.2659 4.82597 9.97395C4.8484 9.37465 4.34534 8.87092 3.70405 8.85276C3.07757 8.83503 2.56732 9.30763 2.54578 9.92941H2.54443ZM11.7051 9.94325C11.7028 9.65151 11.5803 9.37261 11.3645 9.1679C11.1488 8.96319 10.8575 8.84944 10.5547 8.85168C10.2519 8.85391 9.96245 8.97195 9.74999 9.17982C9.53753 9.38769 9.41947 9.66837 9.42179 9.96011C9.42411 10.2519 9.54662 10.5308 9.76237 10.7355C9.97811 10.9402 10.2694 11.0539 10.5722 11.0517C10.875 11.0495 11.1645 10.9314 11.3769 10.7235C11.5894 10.5157 11.7074 10.235 11.7051 9.94325Z" fill="#E4E6E8"/>
</svg>
