<svg width="20" height="20" viewBox="0 0 20 20" fill="none" xmlns="http://www.w3.org/2000/svg">
<g clip-path="url(#clip0_125_10717)">
<path d="M2.65186 0C2.70385 0.0224391 2.75585 0.0469655 2.80785 0.0662735C3.31275 0.246308 3.65229 0.697699 3.65697 1.23258C3.66529 2.12336 3.65697 3.01414 3.66217 3.90492C3.66217 4.0025 3.64033 4.06147 3.53998 4.08809C2.67772 4.33193 1.88131 4.76768 1.20996 5.36294C1.18834 5.37438 1.16549 5.38331 1.14185 5.38955V5.19647C1.14185 3.91588 1.14185 2.63511 1.14185 1.35417C1.14393 0.678391 1.46111 0.242655 2.10068 0.0344414C2.11732 0.0287011 2.1298 0.0114805 2.14436 0H2.65186Z" fill="#666666"/>
<path d="M9.43314 4.68798C10.9634 4.68798 12.4963 4.63579 14.024 4.69998C16.3119 4.79652 18.3643 6.47423 18.8754 8.76668C19.0289 9.44563 19.045 10.1486 18.9226 10.8339C18.8003 11.5192 18.542 12.1729 18.1631 12.7561C17.7843 13.3393 17.2925 13.8402 16.7171 14.2291C16.1417 14.618 15.4943 14.8869 14.8133 15.0199C13.346 15.31 11.9774 15.0199 10.7575 14.1328C10.1933 13.7231 9.59486 13.5326 8.91681 13.7523C8.70969 13.8252 8.51553 13.9309 8.34171 14.0654C7.29292 14.8435 6.11882 15.1832 4.82199 15.1091C2.60222 14.9807 0.584709 13.2347 0.120891 11.044C-0.486961 8.16969 1.23728 5.44621 4.09455 4.80069C4.5066 4.71547 4.92647 4.67419 5.34717 4.67754C6.70899 4.66241 8.07081 4.6718 9.43314 4.6718V4.68798ZM9.44198 6.36308C8.07341 6.36308 6.70414 6.36308 5.33417 6.36308C5.12053 6.36087 4.907 6.3736 4.69512 6.40118C4.22751 6.46785 3.77804 6.6282 3.37343 6.87271C2.96881 7.11722 2.61732 7.44088 2.33985 7.82445C2.06237 8.20802 1.86459 8.64367 1.75825 9.1055C1.65192 9.56732 1.6392 10.0459 1.72086 10.5128C2.18052 13.0979 5.18442 14.2982 7.295 12.7457C7.46312 12.6131 7.64171 12.4944 7.82902 12.3909C9.14404 11.7239 10.4143 11.8455 11.6046 12.6836C12.4885 13.3056 13.4333 13.5707 14.5024 13.3646C16.6738 12.9471 17.953 10.5284 17.0238 8.51567C16.393 7.14949 15.273 6.42309 13.7812 6.37613C12.3367 6.32499 10.8886 6.36308 9.44198 6.36308Z" fill="#666666"/>
<path d="M1.16336 14.418C1.48834 14.6455 1.80085 14.8876 2.13259 15.0964C2.76148 15.4856 3.46065 15.7467 4.19014 15.8645C4.2594 15.8753 4.32396 15.9064 4.37577 15.9537C4.80787 16.3984 5.38036 16.5518 5.9435 16.7229C5.96977 16.7254 5.99626 16.7219 6.02106 16.7129C6.04587 16.7039 6.06839 16.6895 6.08701 16.6708C6.21828 16.5403 6.37499 16.4384 6.54732 16.3715C6.71965 16.3046 6.90388 16.2741 7.08849 16.282C7.6849 16.2877 8.28131 16.2783 8.8772 16.2846C9.69201 16.2935 10.2364 16.8477 10.2338 17.6675C10.2338 18.0959 10.2494 18.529 10.1938 18.9512C10.1132 19.556 9.55941 19.998 8.94948 20.0006C8.30783 20.0043 7.66618 20.0006 7.02557 20.0006C6.59451 20.0006 6.256 19.8154 5.98562 19.4856C5.92513 19.4135 5.84752 19.3578 5.75995 19.3238C5.12974 19.0905 4.46521 18.9282 3.87139 18.6261C2.18407 17.7677 1.29699 16.3509 1.15088 14.4644C1.15229 14.4483 1.15652 14.4326 1.16336 14.418Z" fill="#666666"/>
<path d="M9.4357 7.18804C10.8885 7.18804 12.3413 7.1656 13.7931 7.1943C15.2449 7.223 16.5448 8.43628 16.5063 9.9877C16.4746 11.272 15.4627 12.4085 14.1904 12.5812C13.453 12.6814 12.7864 12.5181 12.1911 12.0792C11.2499 11.3847 10.2042 11.0643 9.0374 11.1718C8.2459 11.2445 7.49212 11.545 6.8665 12.037C6.3714 12.4234 5.75839 12.6262 5.13134 12.611C3.77576 12.5938 2.59802 11.4749 2.50078 10.1161C2.39679 8.70711 3.36862 7.44582 4.73252 7.22613C4.92443 7.19741 5.11827 7.18381 5.31229 7.18543C6.68676 7.18195 8.06123 7.18195 9.4357 7.18543V7.18804Z" fill="#666666"/>
</g>
<defs>
<clipPath id="clip0_125_10717">
<rect width="19.0036" height="20" fill="white"/>
</clipPath>
</defs>
</svg>
