<svg width="20" height="20" viewBox="0 0 20 20" fill="none" xmlns="http://www.w3.org/2000/svg">
<path d="M15.15 8.3335L13.7333 4.4335C13.4917 3.77516 12.8667 3.3335 12.1667 3.3335H10V5.00016H12.1667L13.3833 8.3335H9.375L9.075 7.50016H10V5.8335H5.83333V7.50016H7.29167L8.80833 11.6668H8.25C7.88333 9.8085 6.325 8.4335 4.375 8.34183C2.04167 8.22516 0 10.1668 0 12.5002C0 14.8335 1.83333 16.6668 4.16667 16.6668C6.21667 16.6668 7.875 15.2585 8.25 13.3335H11.75C12.1167 15.1918 13.675 16.5668 15.625 16.6585C17.9583 16.7668 20 14.8335 20 12.4918C20 10.1585 18.1667 8.32516 15.8333 8.32516H15.15V8.3335ZM6.51667 13.3335C6.18333 14.3085 5.275 15.0002 4.16667 15.0002C2.76667 15.0002 1.66667 13.9002 1.66667 12.5002C1.66667 11.1002 2.76667 10.0002 4.16667 10.0002C5.275 10.0002 6.18333 10.6918 6.51667 11.6668H4.16667V13.3335H6.51667ZM11.75 11.6668H10.5833L9.975 10.0002H12.5C12.1333 10.4835 11.8667 11.0418 11.75 11.6668ZM15.8333 15.0002C14.4333 15.0002 13.3333 13.9002 13.3333 12.5002C13.3333 11.7252 13.675 11.0585 14.2083 10.6002L15.0083 12.8002L16.575 12.2335L15.7667 10.0085C15.7917 10.0085 15.8167 10.0002 15.8417 10.0002C17.2417 10.0002 18.3417 11.1002 18.3417 12.5002C18.3417 13.9002 17.2333 15.0002 15.8333 15.0002Z" fill="#666666"/>
</svg>
