<svg width="24" height="25" viewBox="0 0 24 25" fill="none" xmlns="http://www.w3.org/2000/svg">
<g clip-path="url(#clip0_259_5352)">
<path d="M24 12.1418C23.8747 12.3973 23.6712 12.4806 23.3901 12.4743C22.7207 12.4593 22.05 12.4706 21.38 12.4693C21.0437 12.4693 20.8415 12.2815 20.8477 11.989C20.8534 11.706 21.0519 11.5344 21.3806 11.5338C22.0506 11.5338 22.7207 11.5432 23.3907 11.5282C23.6719 11.5219 23.8754 11.6046 24 11.8607V12.1418Z" fill="#FFD77C"/>
<path d="M11.8588 24.0036C11.6033 23.8783 11.52 23.6761 11.5263 23.3943C11.5413 22.7243 11.5306 22.0542 11.5319 21.3836C11.5319 21.0467 11.7154 20.8451 12.0109 20.8507C12.2946 20.857 12.4662 21.0548 12.4668 21.3836C12.4668 22.0536 12.4574 22.7243 12.4724 23.3943C12.4787 23.6754 12.3948 23.879 12.1399 24.0036H11.8588Z" fill="#FFD77C"/>
<path d="M4.53359 11.9849C4.55801 7.85202 7.88997 4.52633 12.004 4.53321C16.1369 4.54135 19.4895 7.904 19.4651 12.0168C19.4401 16.1616 16.0686 19.5142 11.9715 19.4685C7.82234 19.4221 4.50854 16.0883 4.53359 11.9849ZM5.48039 11.9786C5.47413 15.5842 8.38215 18.5135 11.9765 18.5223C15.5708 18.5311 18.512 15.6174 18.5183 12.0231C18.5252 8.41622 15.6178 5.48815 12.0216 5.48064C8.42536 5.47313 5.48665 8.38491 5.48039 11.9786Z" fill="#FFD77C"/>
<path d="M5.7666 2.08277C5.7666 1.80161 5.89748 1.61438 6.09347 1.55739C6.19522 1.52599 6.30463 1.5303 6.4036 1.56959C6.50256 1.60888 6.58513 1.68079 6.63763 1.77343C6.84302 2.11345 7.03714 2.46224 7.23564 2.80351C7.39908 3.08655 7.5669 3.36708 7.72533 3.65325C7.87749 3.92752 7.81299 4.20367 7.57441 4.34206C7.33583 4.48045 7.06532 4.39779 6.90376 4.12102C6.55101 3.51737 6.2016 2.9108 5.85552 2.30131C5.81958 2.23119 5.78982 2.15806 5.7666 2.08277Z" fill="#FFD77C"/>
<path d="M22.504 17.7211C22.4596 18.145 22.0814 18.3604 21.7263 18.1594C21.2504 17.8952 20.7814 17.6171 20.3099 17.3454C20.1552 17.2558 19.9968 17.1707 19.8459 17.0749C19.5991 16.9196 19.5246 16.6622 19.6524 16.433C19.7801 16.2038 20.0575 16.1162 20.3161 16.2614C20.953 16.6209 21.5892 16.9822 22.2141 17.3623C22.3375 17.4374 22.4089 17.5959 22.504 17.7211Z" fill="#FFD77C"/>
<path d="M6.25315 22.5054C5.87744 22.4516 5.64449 22.1028 5.81482 21.796C6.17926 21.1266 6.56624 20.4678 6.95323 19.8122C7.01409 19.7098 7.11308 19.6357 7.22849 19.6063C7.3439 19.5768 7.46628 19.5943 7.56878 19.655C7.62282 19.6825 7.67084 19.7205 7.71004 19.7668C7.74923 19.813 7.77882 19.8667 7.79707 19.9245C7.81531 19.9823 7.82186 20.0432 7.81631 20.1036C7.81077 20.164 7.79325 20.2226 7.76477 20.2762C7.39282 20.9418 7.01334 21.6037 6.61571 22.2543C6.54308 22.3689 6.37526 22.4234 6.25315 22.5054Z" fill="#FFD77C"/>
<path d="M18.2359 21.9461C18.2309 22.2129 18.1207 22.3625 17.9197 22.4377C17.8156 22.4759 17.7011 22.4752 17.5975 22.4356C17.4939 22.396 17.4082 22.3202 17.3561 22.2223C17.1125 21.8153 16.8796 21.402 16.6422 20.9906C16.517 20.7683 16.3811 20.5478 16.2603 20.3218C16.12 20.0594 16.1926 19.7895 16.4287 19.6568C16.6648 19.524 16.9234 19.5942 17.0712 19.8446C17.4431 20.474 17.807 21.1095 18.1695 21.7445C18.1997 21.8088 18.222 21.8765 18.2359 21.9461Z" fill="#FFD77C"/>
<path d="M17.7431 1.49707C18.1188 1.54967 18.3549 1.89721 18.1877 2.20404C17.8195 2.88033 17.4307 3.54597 17.0343 4.20785C17.0024 4.25752 16.961 4.30037 16.9124 4.33389C16.8639 4.36742 16.8091 4.39095 16.7514 4.40313C16.6936 4.41531 16.6341 4.41589 16.5761 4.40483C16.5181 4.39377 16.4629 4.3713 16.4137 4.33872C16.3107 4.28007 16.2345 4.18361 16.2013 4.06978C16.1681 3.95595 16.1805 3.83366 16.2359 3.72881C16.6078 3.0638 16.9873 2.40192 17.3849 1.7513C17.4545 1.63546 17.621 1.57973 17.7431 1.49707Z" fill="#FFD77C"/>
<path d="M2.07331 5.7666C2.14305 5.78454 2.21065 5.80994 2.27495 5.84237C2.89738 6.19638 3.51773 6.55351 4.13598 6.91378C4.39836 7.06783 4.47663 7.33771 4.34513 7.57128C4.21363 7.80485 3.93873 7.88438 3.68012 7.7391C3.04328 7.37967 2.4102 7.01272 1.779 6.64327C1.68532 6.5921 1.61203 6.51034 1.57134 6.41166C1.53066 6.31297 1.52505 6.20331 1.55545 6.10099C1.60805 5.90499 1.79654 5.7666 2.07331 5.7666Z" fill="#FFD77C"/>
<path d="M21.9448 5.76123C22.2128 5.76749 22.3619 5.87895 22.4351 6.08059C22.5128 6.29412 22.4301 6.51516 22.216 6.64416C21.7482 6.92281 21.2767 7.19145 20.802 7.46384C20.6336 7.5609 20.4689 7.66485 20.2955 7.75314C20.241 7.78386 20.181 7.80338 20.1189 7.81054C20.0569 7.81771 19.994 7.81239 19.934 7.79488C19.874 7.77737 19.8181 7.74804 19.7697 7.70861C19.7212 7.66918 19.6811 7.62045 19.6517 7.56529C19.6212 7.51263 19.6015 7.45441 19.5938 7.39402C19.5861 7.33364 19.5905 7.27233 19.6068 7.21369C19.6232 7.15506 19.6511 7.10028 19.6889 7.05258C19.7267 7.00489 19.7737 6.96524 19.8271 6.93596C20.4626 6.56025 21.1051 6.19205 21.7476 5.8251C21.8105 5.79597 21.8768 5.77453 21.9448 5.76123Z" fill="#FFD77C"/>
<path d="M2.0702 18.2377C1.79405 18.2377 1.63625 18.13 1.56925 17.9246C1.50224 17.7192 1.53982 17.5063 1.73832 17.388C2.40041 16.9935 3.06835 16.6082 3.74213 16.232C3.96693 16.1068 4.24308 16.2201 4.35642 16.4462C4.46976 16.6722 4.40151 16.9277 4.1623 17.0724C3.68827 17.356 3.20736 17.6284 2.72895 17.9046C2.58054 17.9904 2.43402 18.0793 2.28248 18.1582C2.2139 18.1902 2.14292 18.2168 2.0702 18.2377Z" fill="#FFD77C"/>
<path d="M11.5313 1.57362C11.5313 1.21481 11.5313 0.856004 11.5313 0.497197C11.5345 0.194121 11.7192 -0.000624685 12.001 1.50562e-06C12.2828 0.000627696 12.465 0.196625 12.4662 0.500954C12.4687 1.21899 12.4687 1.93681 12.4662 2.65442C12.4662 2.95813 12.2784 3.15538 11.9966 3.15162C11.7148 3.14786 11.5338 2.95499 11.5313 2.65067C11.5288 2.29186 11.5313 1.93305 11.5313 1.57362Z" fill="#FFD77C"/>
<path d="M1.56861 12.4695C1.2098 12.4695 0.850993 12.4726 0.492186 12.4695C0.191614 12.4657 0 12.2735 0 11.9942C0.00313095 11.7255 0.195371 11.5358 0.482793 11.5346C1.20792 11.5308 1.93347 11.5308 2.65943 11.5346C2.95938 11.5346 3.15475 11.7293 3.15099 12.008C3.14723 12.2866 2.95186 12.4663 2.64565 12.4688C2.28685 12.472 1.92804 12.4695 1.56861 12.4695Z" fill="#FFD77C"/>
</g>
<defs>
<clipPath id="clip0_259_5352">
<rect width="24" height="24.0038" fill="white"/>
</clipPath>
</defs>
</svg>
