<svg width="16" height="16" viewBox="0 0 16 16" fill="none" xmlns="http://www.w3.org/2000/svg">
<path d="M6.99932 4.00478C6.99932 4.63002 6.99932 5.25495 6.99932 5.87958C6.99932 6.52925 6.53216 6.99954 5.88742 7C4.62618 7 3.36509 7 2.10415 7C1.47763 6.99909 1 6.52698 1 5.90462C1 4.63806 1 3.3712 1 2.10403C1 1.46984 1.47399 1 2.11281 1C3.36828 1 4.6236 1 5.87877 1C6.53671 1 6.99841 1.4662 6.99932 2.12861C7.00023 2.75446 7.00023 3.37985 6.99932 4.00478Z" fill="#EBEBEB"/>
<path d="M9.00192 3.99863C9.00192 3.36161 9.00192 2.72687 9.00192 2.09076C9.00003 1.94709 9.02693 1.80448 9.08104 1.67136C9.13514 1.53824 9.21537 1.41729 9.31698 1.31565C9.41858 1.214 9.53952 1.13372 9.67266 1.07952C9.8058 1.02533 9.94845 0.998321 10.0922 1.00009C11.3641 1.00009 12.6363 1.00009 13.9088 1.00009C14.0527 0.99819 14.1955 1.02516 14.3288 1.0794C14.462 1.13364 14.583 1.21405 14.6847 1.31587C14.7863 1.41769 14.8664 1.53886 14.9203 1.67219C14.9743 1.80553 15.0009 1.94832 14.9986 2.09213C15.0005 3.36374 15.0005 4.63565 14.9986 5.90787C15.0008 6.0516 14.9741 6.1943 14.9201 6.32755C14.8662 6.4608 14.7861 6.58189 14.6845 6.68368C14.583 6.78547 14.4621 6.8659 14.3289 6.92021C14.1958 6.97452 14.0531 7.00162 13.9093 6.9999C12.6371 6.9999 11.3649 6.9999 10.0926 6.9999C9.94863 7.00186 9.80568 6.97495 9.67224 6.92076C9.5388 6.86658 9.41758 6.78621 9.31573 6.68442C9.21389 6.58262 9.13348 6.46145 9.07927 6.32808C9.02506 6.1947 8.99814 6.05182 9.0001 5.90787C9.00056 5.27039 9.00192 4.63474 9.00192 3.99863Z" fill="#EBEBEB"/>
<path d="M3.99961 14.9998C3.36229 14.9998 2.72725 14.9998 2.0913 14.9998C1.94756 15.0017 1.80489 14.9748 1.67171 14.9207C1.53852 14.8666 1.41752 14.7864 1.31583 14.6848C1.21413 14.5832 1.13381 14.4622 1.07959 14.3291C1.02537 14.196 0.998352 14.0534 1.00013 13.9096C1.00013 12.637 1.00013 11.3646 1.00013 10.0925C0.997925 9.94874 1.02457 9.80596 1.0785 9.67264C1.13243 9.53931 1.21253 9.41815 1.31409 9.31631C1.41564 9.21447 1.53658 9.13402 1.66976 9.07971C1.80294 9.0254 1.94566 8.99834 2.08948 9.00012C3.36168 9.00012 4.63389 9.00012 5.90609 9.00012C6.04993 8.99798 6.19273 9.02468 6.32607 9.07865C6.45941 9.13262 6.58059 9.21276 6.68243 9.31434C6.78428 9.41592 6.86473 9.53688 6.91904 9.67007C6.97335 9.80326 7.00041 9.94598 6.99863 10.0898C7.00045 11.3622 7.00045 12.6345 6.99863 13.9069C7.00028 14.0505 6.97322 14.1929 6.91904 14.3259C6.86486 14.4589 6.78465 14.5797 6.68313 14.6813C6.58161 14.7828 6.46082 14.8631 6.32785 14.9173C6.19488 14.9715 6.05242 14.9986 5.90882 14.9971C5.27196 15.0011 4.63556 14.9998 3.99961 14.9998Z" fill="#EBEBEB"/>
<path d="M15 12.0016C15.0007 12.3969 14.9231 12.7885 14.7716 13.1536C14.6202 13.5188 14.3978 13.8504 14.1175 14.1292C13.8371 14.4079 13.5043 14.6284 13.1382 14.7779C12.7722 14.9273 12.3801 15.0028 11.9847 14.9999C10.3225 14.9967 8.99773 13.6526 9 11.972C9.00228 10.3182 10.3539 8.99727 12.0408 9C13.6688 9.00274 15.0023 10.3551 15 12.0016Z" fill="#EBEBEB"/>
</svg>
