<svg width="30" height="30" viewBox="0 0 30 30" fill="none" xmlns="http://www.w3.org/2000/svg">
<path d="M22 15.5C18.8 8.7 10 7 6 7V25.5L7.5 26.5L11 24.5L13 25.5L17 23.5V20L22 15.5Z" fill="#E5E5E5"/>
<path d="M5.005 5.32603C5.005 3.45478 6.5425 1.81978 8.53 2.01603C15.0017 2.65748 20.9975 5.70308 25.3325 10.551C26.67 12.0423 26.2538 14.256 24.7338 15.3573C22.7563 16.7923 19.8088 18.9285 18.13 20.1485C18.1275 20.6948 18.1275 21.0498 18.1287 21.5135V22.2985C18.1289 22.6183 18.059 22.9342 17.9239 23.224C17.7888 23.5138 17.5918 23.7705 17.3468 23.9759C17.1018 24.1814 16.8147 24.3306 16.5058 24.4131C16.1968 24.4957 15.8736 24.5094 15.5588 24.4535C15.3038 25.486 14.3938 26.3623 13.1287 26.3623C12.2537 26.3623 11.5513 25.9435 11.1175 25.3435L9.46125 26.5398C7.60125 27.8823 4.99875 26.5535 5 24.2573L5.005 5.32603ZM8.34625 3.88228C7.585 3.80728 6.87875 4.43603 6.87875 5.32603V5.97603C13.4463 6.25228 19.2675 9.41228 23.11 14.2185L23.6338 13.8385C24.3563 13.3135 24.4488 12.3723 23.9363 11.801C19.9138 7.30348 14.3508 4.47823 8.34625 3.88353V3.88228ZM6.875 24.2573C6.875 25.0223 7.7425 25.466 8.3625 25.0173L11.0225 23.0998C11.1627 22.9989 11.3279 22.9388 11.5001 22.9259C11.6723 22.913 11.8446 22.948 11.9982 23.0268C12.1518 23.1057 12.2806 23.2254 12.3705 23.3728C12.4604 23.5203 12.5078 23.6896 12.5075 23.8623C12.5075 24.1998 12.7687 24.4873 13.1287 24.4873C13.2112 24.4881 13.2929 24.4725 13.3693 24.4414C13.4456 24.4104 13.515 24.3644 13.5734 24.3062C13.6318 24.2481 13.6781 24.1788 13.7095 24.1026C13.7408 24.0264 13.7568 23.9447 13.7563 23.8623V22.2973C13.7563 22.0486 13.855 21.8102 14.0308 21.6344C14.2067 21.4586 14.4451 21.3598 14.6938 21.3598C14.9424 21.3598 15.1808 21.4586 15.3567 21.6344C15.5325 21.8102 15.6313 22.0486 15.6313 22.2973C15.6313 22.4723 15.77 22.6098 15.9412 22.6098C16.0241 22.6098 16.1036 22.5769 16.1622 22.5182C16.2208 22.4596 16.2537 22.3802 16.2537 22.2973V21.5198C16.2525 20.9323 16.2513 20.5098 16.26 19.6585C16.2612 19.5121 16.2966 19.368 16.3634 19.2378C16.4303 19.1076 16.5267 18.9948 16.645 18.9085C17.7725 18.0885 19.765 16.6435 21.59 15.321C19.8078 13.1038 17.5741 11.2913 15.0375 10.0038C12.5008 8.71629 9.71923 7.9833 6.8775 7.85353L6.875 24.2573Z" fill="#7F977B"/>
<path d="M5.005 5.32603C5.005 3.45478 6.5425 1.81978 8.53 2.01603C15.0017 2.65748 20.9975 5.70308 25.3325 10.551C26.67 12.0423 26.2538 14.256 24.7338 15.3573C22.7563 16.7923 19.8088 18.9285 18.13 20.1485C18.1275 20.6948 18.1275 21.0498 18.1287 21.5135V22.2985C18.1289 22.6183 18.059 22.9342 17.9239 23.224C17.7888 23.5138 17.5918 23.7705 17.3468 23.9759C17.1018 24.1814 16.8147 24.3306 16.5058 24.4131C16.1968 24.4957 15.8736 24.5094 15.5588 24.4535C15.3038 25.486 14.3937 26.3623 13.1287 26.3623C12.2537 26.3623 11.5513 25.9435 11.1175 25.3435L9.46125 26.5398C7.60125 27.8823 4.99875 26.5535 5 24.2573L5.005 5.32603ZM8.34625 3.88228C7.585 3.80728 6.87875 4.43603 6.87875 5.32603V5.97603C13.4463 6.25228 19.2675 9.41228 23.11 14.2185L23.6338 13.8385C24.3563 13.3135 24.4488 12.3723 23.9363 11.801C19.9138 7.30348 14.3508 4.47823 8.34625 3.88353V3.88228ZM6.875 24.2573C6.875 25.0223 7.7425 25.466 8.3625 25.0173L11.0225 23.0998C11.1627 22.9989 11.3279 22.9388 11.5001 22.9259C11.6723 22.913 11.8446 22.9479 11.9982 23.0268C12.1518 23.1057 12.2806 23.2254 12.3705 23.3728C12.4604 23.5203 12.5078 23.6896 12.5075 23.8623C12.5075 24.1998 12.7687 24.4873 13.1287 24.4873C13.2112 24.4881 13.2929 24.4725 13.3693 24.4414C13.4456 24.4104 13.515 24.3644 13.5734 24.3062C13.6318 24.2481 13.6781 24.1788 13.7095 24.1026C13.7408 24.0264 13.7568 23.9447 13.7563 23.8623V22.2973C13.7563 22.0486 13.855 21.8102 14.0308 21.6344C14.2067 21.4586 14.4451 21.3598 14.6938 21.3598C14.9424 21.3598 15.1808 21.4586 15.3567 21.6344C15.5325 21.8102 15.6313 22.0486 15.6313 22.2973C15.6313 22.4723 15.77 22.6098 15.9412 22.6098C16.0241 22.6098 16.1036 22.5769 16.1622 22.5182C16.2208 22.4596 16.2537 22.3802 16.2537 22.2973V21.5198C16.2525 20.9323 16.2513 20.5098 16.26 19.6585C16.2612 19.5121 16.2966 19.368 16.3634 19.2378C16.4303 19.1076 16.5267 18.9948 16.645 18.9085C17.7725 18.0885 19.765 16.6435 21.59 15.321C19.8078 13.1038 17.5741 11.2913 15.0375 10.0038C12.5008 8.71629 9.71923 7.9833 6.8775 7.85353L6.875 24.2573Z" stroke="#7F977B" stroke-width="0.4"/>
<path d="M10.8889 12.8724C10.6545 13.1068 10.3365 13.2385 10.005 13.2385C9.67348 13.2385 9.35554 13.1068 9.12112 12.8724C8.8867 12.638 8.755 12.32 8.755 11.9885C8.755 11.657 8.8867 11.3391 9.12112 11.1046C9.35554 10.8702 9.67348 10.7385 10.005 10.7385C10.3365 10.7385 10.6545 10.8702 10.8889 11.1046C11.1233 11.3391 11.255 11.657 11.255 11.9885C11.255 12.32 11.1233 12.638 10.8889 12.8724Z" fill="#7F977B"/>
<path d="M15.8889 16.6199C16.1233 16.3855 16.255 16.0675 16.255 15.736C16.255 15.4045 16.1233 15.0866 15.8889 14.8521C15.6545 14.6177 15.3365 14.486 15.005 14.486C14.6735 14.486 14.3555 14.6177 14.1211 14.8521C13.8867 15.0866 13.755 15.4045 13.755 15.736C13.755 16.0675 13.8867 16.3855 14.1211 16.6199C14.3555 16.8543 14.6735 16.986 15.005 16.986C15.3365 16.986 15.6545 16.8543 15.8889 16.6199Z" fill="#7F977B"/>
<path d="M10.8889 20.3674C10.6545 20.6018 10.3365 20.7335 10.005 20.7335C9.67348 20.7335 9.35554 20.6018 9.12112 20.3674C8.8867 20.133 8.755 19.815 8.755 19.4835C8.755 19.152 8.8867 18.8341 9.12112 18.5996C9.35554 18.3652 9.67348 18.2335 10.005 18.2335C10.3365 18.2335 10.6545 18.3652 10.8889 18.5996C11.1233 18.8341 11.255 19.152 11.255 19.4835C11.255 19.815 11.1233 20.133 10.8889 20.3674Z" fill="#7F977B"/>
</svg>
