<svg width="24" height="23" viewBox="0 0 24 23" fill="none" xmlns="http://www.w3.org/2000/svg">
<g clip-path="url(#clip0_259_5408)">
<path d="M0 9.17771C0.0625978 8.89852 0.113302 8.61433 0.187793 8.34077C0.457636 7.3562 1.01823 6.47592 1.7963 5.81501C2.57437 5.15409 3.53372 4.74327 4.54898 4.63623C5.04038 4.58616 5.54116 4.62872 6.05133 4.62872C6.8651 2.63999 9.21002 1.62403 11.3352 2.46472C12.0983 1.26346 13.1668 0.47035 14.5621 0.137956C15.6601 -0.125581 16.7274 -0.0072709 17.7628 0.434044C19.5355 1.18897 21.2582 3.28224 20.7199 6.22622C20.8764 6.27943 21.0385 6.32763 21.1956 6.38897C22.0879 6.73234 22.8434 7.35833 23.3465 8.17135C23.8497 8.98438 24.0729 9.93973 23.982 10.8915C23.8912 11.8433 23.4914 12.7392 22.8435 13.4424C22.1957 14.1456 21.3355 14.6174 20.3944 14.7858C20.1254 14.8298 19.8531 14.8507 19.5806 14.8484C14.7163 14.8509 9.85185 14.8497 4.98717 14.8447C2.66604 14.8397 0.533959 13.0406 0.104538 10.7583C0.0732394 10.5905 0.0419405 10.424 0.0056338 10.2575L0 9.17771ZM12.3499 13.9114C14.6923 13.9114 17.0345 13.9114 19.3765 13.9114C19.6104 13.9109 19.844 13.8974 20.0764 13.8707C21.9975 13.6528 23.4022 11.7048 22.9778 9.82121C22.6366 8.30384 21.6795 7.39868 20.1571 7.08944C19.6776 6.99179 19.5505 6.79023 19.6926 6.32825C19.8897 5.70071 19.9301 5.03448 19.8103 4.38772C19.4804 2.58991 18.0851 1.26221 16.2529 0.988034C14.5759 0.737643 12.8407 1.64093 12.0225 3.19085C11.8091 3.59586 11.5969 3.66534 11.1869 3.45501C10.6098 3.14779 9.94601 3.04393 9.30266 3.16018C8.05884 3.38428 7.23693 4.11354 6.83443 5.31667C6.72676 5.63968 6.52144 5.75486 6.18404 5.67223C5.65222 5.53918 5.10019 5.50691 4.55649 5.57708C1.73959 5.95267 0.0951487 9.04375 1.38466 11.5802C2.15587 13.0976 3.43912 13.8838 5.13427 13.9063C7.53991 13.9351 9.94491 13.9114 12.3499 13.9114Z" fill="#74D1E7"/>
<path d="M5.56053 22.0972C5.15928 22.1097 4.89262 21.7973 4.99715 21.5162C5.1574 21.0718 5.34082 20.6342 5.53612 20.2017C5.64191 19.9688 5.90795 19.8968 6.1333 20.0001C6.24259 20.0449 6.32999 20.1308 6.37679 20.2392C6.42359 20.3477 6.42607 20.4701 6.38369 20.5804C6.22657 20.9936 6.07071 21.4092 5.87728 21.8061C5.80341 21.9494 5.62814 22.0383 5.56053 22.0972Z" fill="#74D1E7"/>
<path d="M14.3844 18.5572C14.0182 18.5071 13.7816 18.2072 13.8949 17.8993C14.052 17.4692 14.2304 17.0467 14.4188 16.6298C14.4726 16.5271 14.5628 16.4483 14.6717 16.4088C14.7806 16.3692 14.9004 16.3718 15.0075 16.416C15.1146 16.4602 15.2013 16.5429 15.2506 16.6478C15.2999 16.7526 15.3082 16.8721 15.2739 16.9828C15.113 17.4116 14.9471 17.8398 14.7481 18.2511C14.6861 18.3813 14.5089 18.4564 14.3844 18.5572Z" fill="#74D1E7"/>
<path d="M10.6623 18.5561C10.293 18.5022 10.0733 18.1943 10.1947 17.8675C10.3487 17.4537 10.5202 17.0456 10.6999 16.6418C10.7478 16.5334 10.8359 16.4478 10.9456 16.4029C11.0553 16.358 11.1781 16.3572 11.2883 16.4008C11.3441 16.4196 11.3955 16.4492 11.4398 16.4879C11.4841 16.5267 11.5203 16.5738 11.5463 16.6265C11.5723 16.6793 11.5876 16.7367 11.5913 16.7954C11.5951 16.8541 11.5872 16.913 11.5681 16.9686C11.4092 17.4143 11.2277 17.8516 11.0241 18.2788C10.9653 18.404 10.7863 18.4666 10.6623 18.5561Z" fill="#74D1E7"/>
<path d="M18.0601 18.5058C17.734 18.5109 17.4936 18.2123 17.6044 17.9074C17.7584 17.4849 17.9312 17.0686 18.1127 16.6555C18.161 16.541 18.2528 16.4504 18.3679 16.4036C18.483 16.3568 18.612 16.3577 18.7265 16.406C18.8409 16.4543 18.9315 16.5461 18.9783 16.6612C19.0251 16.7763 19.0242 16.9053 18.9759 17.0198C18.8219 17.4179 18.6592 17.8129 18.4927 18.206C18.4616 18.2953 18.4029 18.3725 18.3252 18.4263C18.2475 18.4802 18.1547 18.5081 18.0601 18.5058Z" fill="#74D1E7"/>
<path d="M10.119 20.4697C10.1071 20.5319 10.0904 20.593 10.0689 20.6525C9.92052 21.0193 9.77154 21.3855 9.61629 21.7498C9.48797 22.0516 9.24759 22.1674 8.99032 22.0628C8.73304 21.9583 8.62537 21.6941 8.74932 21.3855C8.90143 21.0037 9.05542 20.6225 9.2213 20.2462C9.26218 20.1438 9.33855 20.0594 9.43648 20.0086C9.5344 19.9578 9.64733 19.944 9.75463 19.9696C9.96434 20.0221 10.1158 20.2112 10.119 20.4697Z" fill="#74D1E7"/>
<path d="M7.87854 16.8896C7.86251 16.9633 7.8416 17.0359 7.81594 17.1068C7.67697 17.4536 7.53509 17.7993 7.39028 18.144C7.25757 18.457 7.01031 18.5822 6.74364 18.4764C6.47698 18.3706 6.38746 18.1008 6.51328 17.7879C6.66665 17.4054 6.82001 17.0223 6.98777 16.6455C7.03035 16.543 7.10971 16.4602 7.21026 16.4133C7.3108 16.3664 7.42525 16.3587 7.53112 16.3919C7.74145 16.4458 7.87478 16.6173 7.87854 16.8896Z" fill="#74D1E7"/>
<path d="M13.8235 20.4814C13.81 20.5475 13.7918 20.6126 13.769 20.6761C13.6276 21.0304 13.483 21.3834 13.3352 21.7352C13.2025 22.0482 12.9528 22.1734 12.6873 22.0595C12.4219 21.9456 12.3349 21.6895 12.4626 21.3709C12.6135 20.9953 12.7643 20.6197 12.9277 20.2492C12.9682 20.1461 13.0444 20.0611 13.1425 20.0098C13.2407 19.9585 13.354 19.9444 13.4617 19.97C13.6789 20.0226 13.8222 20.2035 13.8235 20.4814Z" fill="#74D1E7"/>
<path d="M17.5337 20.4818C17.5183 20.5492 17.4988 20.6157 17.4755 20.6808C17.334 21.0351 17.1919 21.3888 17.0436 21.74C16.9184 22.0448 16.6749 22.165 16.4176 22.0642C16.1428 21.9578 16.042 21.6987 16.1672 21.3863C16.3206 21.0032 16.4739 20.6201 16.6404 20.2433C16.6817 20.1405 16.7587 20.0561 16.8573 20.0056C16.9559 19.9551 17.0694 19.9419 17.1769 19.9685C17.3941 20.0267 17.5343 20.2082 17.5337 20.4818Z" fill="#74D1E7"/>
</g>
<defs>
<clipPath id="clip0_259_5408">
<rect width="24" height="22.1002" fill="white"/>
</clipPath>
</defs>
</svg>
