<svg width="20" height="20" viewBox="0 0 20 20" fill="none" xmlns="http://www.w3.org/2000/svg">
<g clip-path="url(#clip0_125_10024)">
<path d="M0 4.29764C0.156488 4.04061 0.345057 3.84539 0.682681 3.90134C0.925629 3.94046 1.1498 4.13255 1.16193 4.37393C1.19753 5.10121 1.68225 5.20137 2.23661 5.11139C2.81972 5.01927 3.35255 4.72697 3.74357 4.28469C4.13459 3.84241 4.35938 3.27777 4.37933 2.68777C4.3985 2.22261 4.62736 2 5.09331 2H14.8965C15.3746 2 15.6007 2.22065 15.6179 2.6995C15.668 4.04609 16.7806 5.13016 18.1217 5.14034C18.5208 5.14307 18.7868 4.88487 18.8259 4.45844C18.8506 4.17793 19.0251 3.96354 19.2688 3.90721C19.4163 3.87317 19.5462 3.89977 19.6315 4.02809C19.9022 4.43535 20.0462 4.88135 19.9746 5.37272C19.9061 5.84219 19.5869 6.09922 19.153 6.20407C18.8695 6.27474 18.5789 6.31281 18.2868 6.31752C16.6335 6.32887 14.9802 6.32456 13.3269 6.32456C9.53836 6.32456 5.74977 6.32456 1.96119 6.32456C1.15762 6.32456 0.543406 5.99046 0.179962 5.25731C0.097414 5.09065 0.0586831 4.90404 0 4.72721V4.29764Z" fill="#666666"/>
<path d="M0 16.446C0.102109 16.115 0.229647 15.7989 0.495286 15.5583C0.837604 15.2484 1.2433 15.1424 1.69712 15.1436C3.75337 15.1487 5.80963 15.1459 7.86589 15.1459C11.3407 15.1459 14.8155 15.1459 18.2904 15.1459C18.7207 15.1459 19.1143 15.2285 19.4484 15.518C19.7825 15.8075 19.9738 16.1772 19.9918 16.6204C20.0063 16.9725 19.9977 17.3246 19.9957 17.6744C19.9937 17.9682 19.8048 18.1251 19.5673 18.244H0.430343C0.236865 18.1613 0.0827292 18.0072 0 17.8137L0 16.446Z" fill="#666666"/>
<path d="M13.7611 7.50488V13.971H11.8355C11.8355 13.8595 11.8378 13.7452 11.8355 13.6314C11.8265 13.2155 11.8421 12.7973 11.7999 12.385C11.7056 11.4633 10.8566 10.7771 9.9318 10.8095C9.00695 10.842 8.16818 11.6033 8.16231 12.6729C8.15996 13.1013 8.16231 13.5293 8.16231 13.9835H6.24533V7.50488H13.7611Z" fill="#666666"/>
<path d="M3.14246 7.50098H5.05945V13.9678H3.14246V7.50098Z" fill="#666666"/>
<path d="M14.9378 7.49707H16.8548V13.971H14.9378V7.49707Z" fill="#666666"/>
<path d="M10.6609 13.9759H9.34445C9.34445 13.4716 9.31941 12.9732 9.35344 12.4787C9.37418 12.1782 9.71806 11.9505 10.0185 11.9634C10.3389 11.9771 10.6445 12.2326 10.655 12.5397C10.6738 13.0119 10.6609 13.4853 10.6609 13.9759Z" fill="#666666"/>
</g>
<defs>
<clipPath id="clip0_125_10024">
<rect width="20" height="16.2423" fill="white" transform="translate(0 2)"/>
</clipPath>
</defs>
</svg>
