<svg width="20" height="20" viewBox="0 0 20 20" fill="none" xmlns="http://www.w3.org/2000/svg">
<g clip-path="url(#clip0_125_10359)">
<path d="M20.0002 15.0956C19.7059 16.2112 18.8361 16.7539 17.8806 17.1969C16.837 17.6806 15.725 17.9426 14.5969 18.1388C12.6923 18.4696 10.771 18.563 8.84235 18.4863C6.83024 18.4065 4.83953 18.1732 2.92135 17.5147C2.11776 17.2397 1.34913 16.8922 0.718781 16.301C0.261152 15.8715 -0.0284539 15.3554 0.000245764 14.7006C0.0252927 14.1787 0.252281 13.7509 0.606591 13.3856C1.17745 12.797 1.8892 12.4296 2.65209 12.175C3.37637 11.9329 4.12099 11.7497 4.85884 11.5488C4.95746 11.5222 4.99555 11.4966 5.00546 11.3923C5.15627 9.72248 6.49211 8.50353 8.16869 8.5004C9.39912 8.49726 10.6296 8.49726 11.86 8.5004C12.649 8.49878 13.4095 8.79477 13.9899 9.32927C14.5702 9.86377 14.9277 10.5975 14.9909 11.3839C15.0008 11.5008 15.043 11.5295 15.1474 11.5514C16.1279 11.7555 17.0917 12.0143 18.0017 12.4432C18.4865 12.6718 18.941 12.9478 19.3287 13.3225C19.6606 13.6459 19.8922 14.0583 19.9956 14.5101L20.0002 15.0956ZM14.9533 13.2171C14.6992 13.779 14.5395 13.9408 13.9885 14.2017C13.8653 14.2602 13.7422 14.3181 13.6169 14.3723C12.5785 14.8242 11.5025 15.1211 10.365 15.1733C8.89766 15.2401 7.52216 14.8858 6.19363 14.2862C5.68591 14.0577 5.23297 13.7921 5.05817 13.2056C4.67098 13.3052 4.29789 13.3892 3.9321 13.4994C3.25374 13.7044 2.58582 13.9408 2.00974 14.3723C1.57246 14.7 1.55785 14.9281 2.01861 15.2125C2.44133 15.4774 2.88998 15.6986 3.35758 15.8725C5.09 16.5029 6.90121 16.7268 8.73224 16.8045C10.7115 16.889 12.685 16.8045 14.6355 16.421C15.6118 16.2284 16.574 15.9837 17.4669 15.5297C17.7204 15.3988 17.9586 15.2401 18.177 15.0564C18.3858 14.8806 18.3858 14.7308 18.1843 14.5477C18.008 14.385 17.814 14.2423 17.6062 14.1224C16.7807 13.6595 15.8774 13.4232 14.9533 13.2176V13.2171Z" fill="#666666"/>
<path d="M9.99662 6.84899C8.39152 6.84899 7.07082 5.51785 7.07447 3.91067C7.08178 2.31497 8.40561 1 10.0039 1C10.7801 1.00496 11.5229 1.31656 12.0702 1.86688C12.6176 2.4172 12.9253 3.1616 12.9261 3.9378C12.9188 5.53402 11.5939 6.85055 9.99662 6.84899Z" fill="#666666"/>
<path d="M2.49996 2.6748C2.67792 2.67543 2.85102 2.73291 2.99402 2.83885C3.13701 2.94479 3.24241 3.09364 3.29485 3.2637C3.34728 3.43377 3.344 3.61613 3.28549 3.7842C3.22698 3.95227 3.1163 4.09724 2.96959 4.19797C2.84644 4.28198 2.71338 4.35191 2.59128 4.43748C2.47857 4.51575 2.48222 4.61438 2.59128 4.68795C2.69676 4.75443 2.80739 4.81236 2.92211 4.86119C3.54202 5.14558 3.99078 5.58808 4.13323 6.27008C4.28978 7.02097 4.00174 7.6221 3.41626 8.08755C3.2511 8.21405 3.07367 8.32366 2.88662 8.41473C2.69495 8.50801 2.47486 8.52445 2.27146 8.46067C2.06805 8.39689 1.89675 8.25772 1.79266 8.0717C1.68857 7.88567 1.65958 7.66688 1.71163 7.46016C1.76368 7.25345 1.89283 7.07447 2.0726 6.95992C2.1874 6.88686 2.30689 6.82007 2.41752 6.74076C2.52188 6.66718 2.51875 6.57534 2.41752 6.50281C2.33296 6.44319 2.24236 6.39264 2.14722 6.35201C1.76887 6.20158 1.43884 5.95059 1.19282 5.62617C0.601611 4.83302 0.74824 3.77061 1.53252 3.13922C1.91397 2.82613 2.23488 2.6748 2.49996 2.6748Z" fill="#666666"/>
<path d="M17.3764 2.6748C17.8742 2.67898 18.192 2.91745 18.2995 3.2655C18.3511 3.4349 18.3476 3.61634 18.2893 3.78358C18.2311 3.95083 18.1212 4.09522 17.9755 4.19589C17.8711 4.26946 17.749 4.32478 17.642 4.39783C17.4651 4.51837 17.4683 4.61908 17.6525 4.73231C17.7438 4.78148 17.8377 4.82589 17.9337 4.86537C18.574 5.17168 19.0295 5.63296 19.1454 6.3588C19.2596 7.07107 18.9758 7.63098 18.4341 8.06982C18.2548 8.20969 18.0606 8.32922 17.8549 8.42622C17.6636 8.5172 17.4449 8.53183 17.2432 8.46712C17.0415 8.40242 16.8721 8.26325 16.7694 8.07797C16.6667 7.89269 16.6386 7.67525 16.6907 7.46994C16.7428 7.26463 16.8712 7.0869 17.0498 6.97297C17.1541 6.90566 17.2647 6.85035 17.3628 6.77938C17.5335 6.6578 17.5314 6.57066 17.354 6.4569C17.2754 6.41149 17.1936 6.3719 17.1092 6.33845C16.4533 6.03476 15.979 5.57556 15.8569 4.83354C15.7411 4.13901 16.003 3.58119 16.5295 3.14496C16.8123 2.91171 17.1155 2.68733 17.3764 2.6748Z" fill="#666666"/>
</g>
<defs>
<clipPath id="clip0_125_10359">
<rect width="20" height="17.5115" fill="white" transform="translate(0 1)"/>
</clipPath>
</defs>
</svg>
