<svg width="12" height="14" viewBox="0 0 12 14" fill="none" xmlns="http://www.w3.org/2000/svg">
<path d="M5.97327 13.9999C5.85446 13.8848 5.7175 13.7835 5.61991 13.6527C4.35643 11.9598 3.09614 10.2646 1.83905 8.56713C1.30797 7.85388 0.94913 7.06461 0.818673 6.18563C0.600217 4.7403 0.908041 3.40933 1.76372 2.21807C2.44853 1.26375 3.36002 0.606658 4.47867 0.250546C5.27411 -0.00668563 6.12012 -0.0669647 6.944 0.0748868C8.25542 0.297799 9.33537 0.92442 10.1852 1.93591C10.8242 2.69054 11.2316 3.61374 11.3583 4.59443C11.5586 6.07537 11.1902 7.40429 10.3006 8.59863C9.02549 10.3107 7.75219 12.0245 6.48072 13.74C6.40471 13.8427 6.28897 13.9139 6.19207 13.9999H5.97327ZM6.08593 2.46049C4.51085 2.46049 3.21484 3.74832 3.2097 5.3224C3.20594 6.90539 4.4975 8.20314 6.07839 8.20451C7.65929 8.20588 8.94948 6.91669 8.95461 5.34261C8.95838 3.7603 7.66682 2.46255 6.08593 2.46118V2.46049Z" fill="#E4E6E8"/>
</svg>
