<svg width="24" height="23" viewBox="0 0 24 23" fill="none" xmlns="http://www.w3.org/2000/svg">
<g clip-path="url(#clip0_259_5384)">
<path d="M0 9.46479C0.151427 9.22388 0.370434 9.14379 0.650763 9.15192C1.15636 9.16569 1.6632 9.14817 2.16942 9.15881C2.58991 9.16694 2.84333 9.52549 2.63872 9.84211C2.58862 9.91222 2.52468 9.97133 2.45085 10.0158C2.37703 10.0602 2.29487 10.0891 2.20946 10.1005C1.63504 10.1299 1.05749 10.1137 0.481189 10.1112C0.254048 10.1112 0.117012 9.96475 0 9.7933L0 9.46479Z" fill="#FFD77C"/>
<path d="M21.2324 14.5795C21.9709 14.7924 22.625 15.2298 23.104 15.8309C24.0138 16.9791 24.2466 18.2663 23.7297 19.6329C23.2166 20.9895 22.2035 21.8029 20.7687 22.0645C20.538 22.103 20.3043 22.1206 20.0704 22.117C15.9406 22.1202 11.8107 22.1033 7.6859 22.1258C6.64897 22.1323 5.64084 21.7849 4.82807 21.141C4.01529 20.497 3.4465 19.5951 3.21566 18.5841C2.67565 16.1657 4.26314 13.6878 6.70975 13.2235C7.17655 13.1353 7.66838 13.1659 8.14894 13.164C8.306 13.164 8.39423 13.1453 8.47307 12.9895C8.84864 12.2267 9.48781 11.6259 10.2723 11.2981C11.0567 10.9704 11.9334 10.9379 12.7399 11.2067C12.9014 11.2587 12.9777 11.2387 13.0766 11.0954C14.1078 9.60299 15.9712 8.86275 17.6832 9.25383C19.5241 9.67433 20.882 11.0685 21.1642 12.8868C21.248 13.4262 21.2124 13.9838 21.2324 14.5795ZM13.855 21.1747C15.9545 21.1747 18.0537 21.1747 20.1524 21.1747C20.8821 21.1728 21.5843 20.8959 22.1189 20.3992C22.6535 19.9024 22.9811 19.2224 23.0363 18.4947C23.0916 17.7671 22.8705 17.0454 22.4172 16.4735C21.9638 15.9017 21.3115 15.5219 20.5904 15.4098C20.1705 15.3422 20.0191 15.1051 20.1405 14.6933C20.3014 14.145 20.3354 13.5673 20.24 13.0039C19.9959 11.4833 18.5668 10.183 17.0487 10.1186C15.5076 10.056 14.3581 10.6936 13.6072 12.049C13.4283 12.3731 13.203 12.4432 12.8695 12.2793C11.3552 11.5346 9.71765 12.2079 9.15887 13.8042C9.03998 14.1446 8.84601 14.234 8.49247 14.1865C8.08637 14.1314 7.67088 14.0701 7.26603 14.0995C5.18359 14.2528 3.67307 16.3365 4.14613 18.3708C4.53783 20.0603 5.94198 21.1734 7.67776 21.1741L13.855 21.1747Z" fill="#74D1E7"/>
<path d="M9.64191 3.96973C12.2537 4.0323 14.4601 5.76245 15.0933 8.27978C15.1771 8.61517 15.0626 8.87109 14.7967 8.94305C14.5057 9.02127 14.2817 8.86797 14.1847 8.52569C13.6472 6.63848 12.4327 5.4596 10.5085 5.04348C8.06819 4.51849 5.52709 6.22737 5.05653 8.68463C4.81813 9.92796 5.02838 11.0849 5.70041 12.1568C5.82556 12.352 5.85998 12.5473 5.72169 12.7456C5.60781 12.9102 5.43635 12.9828 5.25239 12.9246C5.12108 12.8843 5.0063 12.8026 4.92513 12.6918C4.43636 11.9413 4.13434 11.0847 4.04434 10.1936C3.95433 9.30252 4.07895 8.40282 4.40777 7.56974C4.7366 6.73665 5.26007 5.99439 5.93444 5.40499C6.6088 4.81559 7.41446 4.39619 8.28407 4.18185C8.72583 4.06734 9.18888 4.03793 9.64191 3.96973Z" fill="#FFD77C"/>
<path d="M5.1498 1.22314C5.21238 1.27383 5.3832 1.34829 5.46267 1.47657C5.7674 1.96339 6.04898 2.46523 6.32931 2.96706C6.47323 3.22487 6.39188 3.50207 6.16036 3.63097C5.92884 3.75987 5.66854 3.69354 5.51961 3.44325C5.22114 2.94266 4.92579 2.44207 4.64358 1.92897C4.46838 1.60171 4.69302 1.2269 5.1498 1.22314Z" fill="#FFD77C"/>
<path d="M1.74082 4.5791C1.81603 4.59631 1.88908 4.62192 1.95857 4.65544C2.4529 4.93577 2.94598 5.2186 3.4353 5.50832C3.69373 5.66099 3.77007 5.93632 3.63429 6.16784C3.4985 6.39936 3.22443 6.47007 2.96288 6.32365C2.46729 6.0454 1.97463 5.76153 1.48489 5.47202C1.26401 5.34187 1.17203 5.12474 1.24023 4.9195C1.31407 4.70425 1.46174 4.58724 1.74082 4.5791Z" fill="#FFD77C"/>
<path d="M3.69749 13.4285C3.64555 13.4961 3.57234 13.665 3.44282 13.7457C2.95537 14.0511 2.45228 14.3327 1.94982 14.6136C1.69014 14.7588 1.41419 14.6818 1.28278 14.4484C1.15138 14.215 1.22709 13.9479 1.4899 13.7914C1.9786 13.503 2.4698 13.217 2.96601 12.9411C3.30828 12.7515 3.69186 12.9617 3.69749 13.4285Z" fill="#FFD77C"/>
<path d="M12.8713 3.16591C12.8956 3.08594 12.9264 3.00809 12.9633 2.93314C13.2307 2.46009 13.5019 1.9887 13.7768 1.51898C13.9463 1.22989 14.2148 1.14354 14.4613 1.28934C14.696 1.43138 14.7573 1.7067 14.6015 1.9814C14.3262 2.46822 14.0463 2.95254 13.7618 3.43435C13.6297 3.65711 13.4214 3.73721 13.2092 3.66775C12.9971 3.59829 12.8788 3.44624 12.8713 3.16591Z" fill="#FFD77C"/>
<path d="M18.0924 5.08591C17.9998 5.21105 17.9322 5.37312 17.8096 5.44946C17.3152 5.75795 16.8084 6.04453 16.2984 6.32987C16.0481 6.4694 15.7828 6.39682 15.6483 6.17281C15.5138 5.94879 15.5813 5.66158 15.836 5.51141C16.331 5.21731 16.8278 4.92697 17.3309 4.64852C17.6713 4.45892 18.0486 4.67856 18.0924 5.08591Z" fill="#FFD77C"/>
<path d="M10.1131 1.34485C10.1131 1.62581 10.1175 1.90801 10.1131 2.18772C10.1075 2.48494 9.91097 2.69519 9.64566 2.70144C9.38035 2.7077 9.17511 2.50121 9.17136 2.20086C9.16301 1.63144 9.16301 1.06181 9.17136 0.491978C9.17511 0.18224 9.36346 -0.0023513 9.64378 -0.0004741C9.92411 0.0014031 10.1068 0.198509 10.1131 0.500113C10.1175 0.782944 10.1131 1.0639 10.1131 1.34485Z" fill="#FFD77C"/>
</g>
<defs>
<clipPath id="clip0_259_5384">
<rect width="24" height="22.1234" fill="white"/>
</clipPath>
</defs>
</svg>
